<?xml version="1.0" encoding="us-ascii" standalone="no"?><svg xmlns="http://www.w3.org/2000/svg" xmlns:xlink="http://www.w3.org/1999/xlink" contentStyleType="text/css" height="321px" preserveAspectRatio="none" style="width:802px;height:321px;background:#FFFFFF;" version="1.1" viewBox="0 0 802 321" width="802px" zoomAndPan="magnify"><defs/><g><!--cluster Course-Description-Automation--><g id="cluster_Course-Description-Automation"><rect fill="none" height="217" rx="2.5" ry="2.5" style="stroke:#181818;stroke-width:1.0;" width="535" x="53.5" y="7"/><text fill="#000000" font-family="sans-serif" font-size="14" font-weight="bold" lengthAdjust="spacing" textLength="257" x="192.5" y="21.9951">Course-Description-Automation</text></g><g id="elem_GUI [java]"><ellipse cx="506.3197" cy="179.7671" fill="#F1F1F1" rx="59.3197" ry="14.7671" style="stroke:#181818;stroke-width:0.5;"/><text fill="#000000" font-family="sans-serif" font-size="14" lengthAdjust="spacing" textLength="66" x="470.3197" y="183.5147">GUI [java]</text></g><g id="elem_Rust"><ellipse cx="103.6191" cy="145.026" fill="#F1F1F1" rx="34.1191" ry="14.526" style="stroke:#181818;stroke-width:0.5;"/><text fill="#000000" font-family="sans-serif" font-size="14" lengthAdjust="spacing" textLength="32" x="87.1725" y="148.0381">Rust</text></g><g id="elem_Main [scala]"><ellipse cx="506.613" cy="109.1226" fill="#F1F1F1" rx="66.113" ry="15.6226" style="stroke:#181818;stroke-width:0.5;"/><text fill="#000000" font-family="sans-serif" font-size="14" lengthAdjust="spacing" textLength="82" x="462.613" y="112.8702">Main [scala]</text></g><!--entity user--><g id="elem_user"><ellipse cx="103.5" cy="248.5" fill="#F1F1F1" rx="8" ry="8" style="stroke:#181818;stroke-width:0.5;"/><path d="M103.5,256.5 L103.5,283.5 M90.5,264.5 L116.5,264.5 M103.5,283.5 L90.5,298.5 M103.5,283.5 L116.5,298.5 " fill="none" style="stroke:#181818;stroke-width:0.5;"/><text fill="#000000" font-family="sans-serif" font-size="14" lengthAdjust="spacing" textLength="30" x="88.5" y="312.9951">user</text></g><!--entity unige--><g id="elem_unige"><path d="M726.5,96.5 C726.5,86.5 756,86.5 756,86.5 C756,86.5 785.5,86.5 785.5,96.5 L785.5,121.7969 C785.5,131.7969 756,131.7969 756,131.7969 C756,131.7969 726.5,131.7969 726.5,121.7969 L726.5,96.5 " fill="#F1F1F1" style="stroke:#181818;stroke-width:0.5;"/><path d="M726.5,96.5 C726.5,106.5 756,106.5 756,106.5 C756,106.5 785.5,106.5 785.5,96.5 " fill="none" style="stroke:#181818;stroke-width:0.5;"/><text fill="#000000" font-family="sans-serif" font-size="14" lengthAdjust="spacing" textLength="39" x="736.5" y="123.4951">unige</text></g><!--link user to GUI [java]--><g id="link_user_GUI [java]"><path d="M118.7417,276.066 C162.754,269.8976 300.262,249.1873 410.5,217 C431,211.014 453.279,202.452 471.106,195.071 " fill="none" id="user-to-GUI [java]" style="stroke:#181818;stroke-width:1.0;stroke-dasharray:7.0,7.0;"/><polygon fill="#181818" points="476.011,193.024,466.1647,192.7989,471.3967,194.9497,469.2459,200.1817,476.011,193.024" style="stroke:#181818;stroke-width:1.0;"/><text fill="#000000" font-family="sans-serif" font-size="13" lengthAdjust="spacing" textLength="64" x="257" y="213.0669">user input</text></g><!--link Rust to GUI [java]--><g id="link_Rust_GUI [java]"><path d="M123.2346,156.983 C135.3428,164.012 151.731,172.232 167.5,176 C263.598,198.963 379.49,193.452 447.574,186.988 " fill="none" id="Rust-to-GUI [java]" style="stroke:#181818;stroke-width:1.0;"/><polygon fill="#181818" points="452.797,186.481,443.4528,183.3687,447.8204,186.9638,444.2253,191.3314,452.797,186.481" style="stroke:#181818;stroke-width:1.0;"/><text fill="#000000" font-family="sans-serif" font-size="13" lengthAdjust="spacing" textLength="160" x="209" y="172.0669">launch and retrieve input</text></g><!--link Rust to Main [scala]--><g id="link_Rust_Main [scala]"><path d="M137.1261,142.445 C193.09,138.013 310.981,128.465 410.5,119 C420.432,118.055 430.941,117.003 441.209,115.945 " fill="none" id="Rust-to-Main [scala]" style="stroke:#181818;stroke-width:1.0;"/><polygon fill="#181818" points="446.227,115.425,436.8634,112.3718,441.2535,115.9392,437.6861,120.3294,446.227,115.425" style="stroke:#181818;stroke-width:1.0;"/><text fill="#000000" font-family="sans-serif" font-size="13" lengthAdjust="spacing" textLength="127" x="225.5" y="115.0669">launch DB extractor</text></g><!--link Main [scala] to Rust--><g id="link_Main [scala]_Rust"><path d="M460.339,97.865 C394.155,83.671 267.8,64.708 167.5,98 C149.814,103.87 133.0691,116.852 121.2945,127.688 " fill="none" id="Main [scala]-to-Rust" style="stroke:#181818;stroke-width:1.0;"/><polygon fill="#181818" points="117.4977,131.267,126.7905,128.0045,121.1361,127.8374,121.3032,122.183,117.4977,131.267" style="stroke:#181818;stroke-width:1.0;"/><text fill="#000000" font-family="sans-serif" font-size="13" lengthAdjust="spacing" textLength="241" x="168.5" y="76.0669">create markdown course descriptions</text></g><!--link Rust to user--><g id="link_Rust_user"><path d="M103.5,159.747 C103.5,177.74 103.5,208.954 103.5,234.7963 " fill="none" id="Rust-to-user" style="stroke:#181818;stroke-width:1.0;"/><polygon fill="#181818" points="103.5,239.8875,107.5,230.8875,103.5,234.8875,99.5,230.8875,103.5,239.8875" style="stroke:#181818;stroke-width:1.0;"/><text fill="#000000" font-family="sans-serif" font-size="13" lengthAdjust="spacing" textLength="170" x="7" y="204.3169">parallelized pdf generation</text></g><!--link Main [scala] to unige--><g id="link_Main [scala]_unige"><path d="M540.267,122.37 C578.218,136.019 642.45,153.436 696.5,140 C700.348,139.043 704.222,137.782 708.044,136.314 " fill="none" id="Main [scala]-to-unige" style="stroke:#181818;stroke-width:1.0;"/><polygon fill="none" points="705.29,129.874,726.37,127.726,711.231,142.551,705.29,129.874" style="stroke:#181818;stroke-width:1.0;"/><text fill="#000000" font-family="sans-serif" font-size="13" lengthAdjust="spacing" textLength="90" x="605.5" y="136.0669">HTTP Request</text></g><!--link unige to Main [scala]--><g id="link_unige_Main [scala]"><path d="M726.492,109 C693.952,109 639.203,109 592.589,109 " fill="none" id="unige-to-Main [scala]" style="stroke:#181818;stroke-width:1.0;"/><polygon fill="none" points="592.528,116,572.528,109,592.528,102,592.528,116" style="stroke:#181818;stroke-width:1.0;"/><text fill="#000000" font-family="sans-serif" font-size="13" lengthAdjust="spacing" textLength="89" x="606" y="105.0669">json response</text></g><!--SRC=[RP0xJmCn48Hx_uefa-Bo0wuu2OW454WeX2gYMEpDnJd7FknrUFztxi4hXCvQpyn-EuxN0Wc8jju8Z8sinGQlKcDzIv5sQ4atLFEDF3j6_qs-Tgn8IuZ8YQDIXeJkAJ6ojpL3gMyPpaAEYOiv9nrjsqSN9rd2ZledNXM62Cnc5IRdjvTORMbFTrEKuxo3o89EDLda95CKnP7EKVPw0_AcevDeUS-ZxO_hYgp7Acbo1xxvAVX9ud2E-hsf6WbAz3Kunyw-i45hrgZPSnmEwEM7kKNnLdtMKE9YkRp6WXyofvvc70-A8vfjwkg8dDhW4_yNMts1bT2HIHWxYeq9Znvww1Zcf-EatZy0]--></g></svg>