<?xml version="1.0" encoding="us-ascii" standalone="no"?><svg xmlns="http://www.w3.org/2000/svg" xmlns:xlink="http://www.w3.org/1999/xlink" contentStyleType="text/css" height="698px" preserveAspectRatio="none" style="width:1430px;height:698px;background:#FFFFFF;" version="1.1" viewBox="0 0 1430 698" width="1430px" zoomAndPan="magnify"><defs/><g><!--cluster ch--><g id="cluster_ch"><path d="M8.5,6 L26.5,6 A3.75,3.75 0 0 1 29,8.5 L36,29.6094 L1420.5,29.6094 A2.5,2.5 0 0 1 1423,32.1094 L1423,688.5 A2.5,2.5 0 0 1 1420.5,691 L8.5,691 A2.5,2.5 0 0 1 6,688.5 L6,8.5 A2.5,2.5 0 0 1 8.5,6 " fill="none" style="stroke:#000000;stroke-width:1.5;"/><line style="stroke:#000000;stroke-width:1.5;" x1="6" x2="36" y1="29.6094" y2="29.6094"/><text fill="#000000" font-family="sans-serif" font-size="14" font-weight="bold" lengthAdjust="spacing" textLength="17" x="10" y="22.5332">ch</text></g><!--cluster sealedconcept--><g id="cluster_sealedconcept"><path d="M32.5,50 L137.5,50 A3.75,3.75 0 0 1 140,52.5 L147,73.6094 L1396.5,73.6094 A2.5,2.5 0 0 1 1399,76.1094 L1399,664.5 A2.5,2.5 0 0 1 1396.5,667 L32.5,667 A2.5,2.5 0 0 1 30,664.5 L30,52.5 A2.5,2.5 0 0 1 32.5,50 " fill="none" style="stroke:#000000;stroke-width:1.5;"/><line style="stroke:#000000;stroke-width:1.5;" x1="30" x2="147" y1="73.6094" y2="73.6094"/><text fill="#000000" font-family="sans-serif" font-size="14" font-weight="bold" lengthAdjust="spacing" textLength="104" x="34" y="66.5332">sealedconcept</text></g><!--class Aug--><g id="elem_Aug"><rect codeLine="4" fill="#F1F1F1" height="58.7031" id="Aug" rx="2.5" ry="2.5" style="stroke:#181818;stroke-width:0.5;" width="105" x="157.5" y="473"/><ellipse cx="172.5" cy="494.3516" fill="#FF0000" rx="11" ry="11" style="stroke:#181818;stroke-width:1.0;"/><path d="M177.875,494.3203 Q177.875,496.5859 176.4375,498.1016 Q175,499.6016 173.1094,499.6016 Q171.4063,499.6016 170.0313,498.3516 Q168.3438,496.7891 168.3438,494.3203 Q168.3438,491.8516 170.0313,490.2891 Q171.4063,489.0391 173.1094,489.0391 Q175,489.0391 176.4375,490.5391 Q177.875,492.0391 177.875,494.3203 Z M176.1719,494.3203 Q176.1719,492.7734 175.2344,491.7578 Q174.2969,490.7422 173.1094,490.7422 Q171.9219,490.7422 170.9844,491.7578 Q170.0469,492.7734 170.0469,494.3203 Q170.0469,495.8672 170.9844,496.8828 Q171.9219,497.8984 173.1094,497.8984 Q174.2969,497.8984 175.2344,496.8828 Q176.1719,495.8672 176.1719,494.3203 Z " fill="#000000"/><text fill="#000000" font-family="sans-serif" font-size="12" font-style="italic" lengthAdjust="spacing" textLength="77" x="184.5" y="490.457">&#171;case object&#187;</text><text fill="#000000" font-family="sans-serif" font-size="14" lengthAdjust="spacing" textLength="25" x="210.5" y="507.627">Aug</text><line style="stroke:#181818;stroke-width:0.5;" x1="158.5" x2="261.5" y1="515.7031" y2="515.7031"/><line style="stroke:#181818;stroke-width:0.5;" x1="158.5" x2="261.5" y1="523.7031" y2="523.7031"/></g><!--class Bachelor--><g id="elem_Bachelor"><rect codeLine="5" fill="#F1F1F1" height="58.7031" id="Bachelor" rx="2.5" ry="2.5" style="stroke:#181818;stroke-width:0.5;" width="105" x="997.5" y="473"/><ellipse cx="1012.5" cy="494.3516" fill="#FF0000" rx="11" ry="11" style="stroke:#181818;stroke-width:1.0;"/><path d="M1017.875,494.3203 Q1017.875,496.5859 1016.4375,498.1016 Q1015,499.6016 1013.1094,499.6016 Q1011.4063,499.6016 1010.0313,498.3516 Q1008.3438,496.7891 1008.3438,494.3203 Q1008.3438,491.8516 1010.0313,490.2891 Q1011.4063,489.0391 1013.1094,489.0391 Q1015,489.0391 1016.4375,490.5391 Q1017.875,492.0391 1017.875,494.3203 Z M1016.1719,494.3203 Q1016.1719,492.7734 1015.2344,491.7578 Q1014.2969,490.7422 1013.1094,490.7422 Q1011.9219,490.7422 1010.9844,491.7578 Q1010.0469,492.7734 1010.0469,494.3203 Q1010.0469,495.8672 1010.9844,496.8828 Q1011.9219,497.8984 1013.1094,497.8984 Q1014.2969,497.8984 1015.2344,496.8828 Q1016.1719,495.8672 1016.1719,494.3203 Z " fill="#000000"/><text fill="#000000" font-family="sans-serif" font-size="12" font-style="italic" lengthAdjust="spacing" textLength="77" x="1024.5" y="490.457">&#171;case object&#187;</text><text fill="#000000" font-family="sans-serif" font-size="14" lengthAdjust="spacing" textLength="56" x="1035" y="507.627">Bachelor</text><line style="stroke:#181818;stroke-width:0.5;" x1="998.5" x2="1101.5" y1="515.7031" y2="515.7031"/><line style="stroke:#181818;stroke-width:0.5;" x1="998.5" x2="1101.5" y1="523.7031" y2="523.7031"/></g><!--class CourseActivity--><g id="elem_CourseActivity"><rect codeLine="6" fill="#F1F1F1" height="58.7031" id="CourseActivity" rx="2.5" ry="2.5" style="stroke:#181818;stroke-width:0.5;" width="121" x="709.5" y="336.5"/><ellipse cx="724.5" cy="357.8516" fill="#B4A7E5" rx="11" ry="11" style="stroke:#181818;stroke-width:1.0;"/><path d="M725.4531,354.4922 L725.4531,361.1484 L727.1719,361.1484 Q727.7813,361.1484 728.0469,361.3828 Q728.3125,361.6172 728.3125,362.0078 Q728.3125,362.3828 728.0469,362.6172 Q727.7813,362.8516 727.1719,362.8516 L722.0313,362.8516 Q721.4219,362.8516 721.1563,362.6172 Q720.8906,362.3828 720.8906,361.9922 Q720.8906,361.6172 721.1563,361.3828 Q721.4219,361.1484 722.0313,361.1484 L723.75,361.1484 L723.75,354.4922 L722.0313,354.4922 Q721.4219,354.4922 721.1563,354.2578 Q720.8906,354.0234 720.8906,353.6328 Q720.8906,353.2578 721.1563,353.0234 Q721.4219,352.7891 722.0313,352.7891 L727.1719,352.7891 Q727.7813,352.7891 728.0469,353.0234 Q728.3125,353.2578 728.3125,353.6328 Q728.3125,354.0234 728.0469,354.2578 Q727.7813,354.4922 727.1719,354.4922 L725.4531,354.4922 Z " fill="#000000"/><text fill="#000000" font-family="sans-serif" font-size="12" font-style="italic" lengthAdjust="spacing" textLength="74" x="746" y="353.957">&#171;sealed trait&#187;</text><text fill="#000000" font-family="sans-serif" font-size="14" font-style="italic" lengthAdjust="spacing" textLength="89" x="738.5" y="371.127">CourseActivity</text><line style="stroke:#181818;stroke-width:0.5;" x1="710.5" x2="829.5" y1="379.2031" y2="379.2031"/><line style="stroke:#181818;stroke-width:0.5;" x1="710.5" x2="829.5" y1="387.2031" y2="387.2031"/></g><!--class CourseHours--><g id="elem_CourseHours"><rect codeLine="7" fill="#F1F1F1" height="58.7031" id="CourseHours" rx="2.5" ry="2.5" style="stroke:#181818;stroke-width:0.5;" width="115" x="1136.5" y="336.5"/><ellipse cx="1151.5" cy="357.8516" fill="#ADD1B2" rx="11" ry="11" style="stroke:#181818;stroke-width:1.0;"/><path d="M1154.2656,353.7266 Q1154.4219,353.5078 1154.6094,353.3984 Q1154.7969,353.2891 1155.0156,353.2891 Q1155.3906,353.2891 1155.625,353.5547 Q1155.8594,353.8047 1155.8594,354.4141 L1155.8594,355.8672 Q1155.8594,356.4766 1155.625,356.7422 Q1155.3906,357.0078 1155.0156,357.0078 Q1154.6719,357.0078 1154.4688,356.8047 Q1154.2656,356.6172 1154.1563,356.1016 Q1154.1094,355.7422 1153.9219,355.5547 Q1153.5938,355.1797 1152.9844,354.9609 Q1152.375,354.7422 1151.75,354.7422 Q1150.9844,354.7422 1150.3438,355.0703 Q1149.7188,355.3984 1149.2188,356.1484 Q1148.7344,356.8984 1148.7344,357.9297 L1148.7344,359.0234 Q1148.7344,360.2578 1149.625,361.0859 Q1150.5156,361.8984 1152.1094,361.8984 Q1153.0469,361.8984 1153.7031,361.6484 Q1154.0938,361.4922 1154.5156,361.0547 Q1154.7813,360.7891 1154.9219,360.7109 Q1155.0781,360.6328 1155.2813,360.6328 Q1155.6094,360.6328 1155.8594,360.8984 Q1156.125,361.1484 1156.125,361.4922 Q1156.125,361.8359 1155.7813,362.2422 Q1155.2813,362.8203 1154.4844,363.1484 Q1153.4063,363.6016 1152.1094,363.6016 Q1150.5938,363.6016 1149.3906,362.9766 Q1148.4063,362.4766 1147.7188,361.4141 Q1147.0313,360.3359 1147.0313,359.0547 L1147.0313,357.8984 Q1147.0313,356.5703 1147.6406,355.4297 Q1148.2656,354.2734 1149.3594,353.6641 Q1150.4531,353.0391 1151.6875,353.0391 Q1152.4219,353.0391 1153.0625,353.2109 Q1153.7188,353.3672 1154.2656,353.7266 Z " fill="#000000"/><text fill="#000000" font-family="sans-serif" font-size="12" font-style="italic" lengthAdjust="spacing" textLength="71" x="1171.5" y="353.957">&#171;case class&#187;</text><text fill="#000000" font-family="sans-serif" font-size="14" lengthAdjust="spacing" textLength="83" x="1165.5" y="371.127">CourseHours</text><line style="stroke:#181818;stroke-width:0.5;" x1="1137.5" x2="1250.5" y1="379.2031" y2="379.2031"/><line style="stroke:#181818;stroke-width:0.5;" x1="1137.5" x2="1250.5" y1="387.2031" y2="387.2031"/></g><!--class ExaSession--><g id="elem_ExaSession"><rect codeLine="8" fill="#F1F1F1" height="58.7031" id="ExaSession" rx="2.5" ry="2.5" style="stroke:#181818;stroke-width:0.5;" width="105" x="297.5" y="336.5"/><ellipse cx="312.5" cy="357.8516" fill="#B4A7E5" rx="11" ry="11" style="stroke:#181818;stroke-width:1.0;"/><path d="M313.4531,354.4922 L313.4531,361.1484 L315.1719,361.1484 Q315.7813,361.1484 316.0469,361.3828 Q316.3125,361.6172 316.3125,362.0078 Q316.3125,362.3828 316.0469,362.6172 Q315.7813,362.8516 315.1719,362.8516 L310.0313,362.8516 Q309.4219,362.8516 309.1563,362.6172 Q308.8906,362.3828 308.8906,361.9922 Q308.8906,361.6172 309.1563,361.3828 Q309.4219,361.1484 310.0313,361.1484 L311.75,361.1484 L311.75,354.4922 L310.0313,354.4922 Q309.4219,354.4922 309.1563,354.2578 Q308.8906,354.0234 308.8906,353.6328 Q308.8906,353.2578 309.1563,353.0234 Q309.4219,352.7891 310.0313,352.7891 L315.1719,352.7891 Q315.7813,352.7891 316.0469,353.0234 Q316.3125,353.2578 316.3125,353.6328 Q316.3125,354.0234 316.0469,354.2578 Q315.7813,354.4922 315.1719,354.4922 L313.4531,354.4922 Z " fill="#000000"/><text fill="#000000" font-family="sans-serif" font-size="12" font-style="italic" lengthAdjust="spacing" textLength="74" x="326" y="353.957">&#171;sealed trait&#187;</text><text fill="#000000" font-family="sans-serif" font-size="14" font-style="italic" lengthAdjust="spacing" textLength="73" x="326.5" y="371.127">ExaSession</text><line style="stroke:#181818;stroke-width:0.5;" x1="298.5" x2="401.5" y1="379.2031" y2="379.2031"/><line style="stroke:#181818;stroke-width:0.5;" x1="298.5" x2="401.5" y1="387.2031" y2="387.2031"/></g><!--class Exercices--><g id="elem_Exercices"><rect codeLine="10" fill="#F1F1F1" height="58.7031" id="Exercices" rx="2.5" ry="2.5" style="stroke:#181818;stroke-width:0.5;" width="105" x="577.5" y="473"/><ellipse cx="592.5" cy="494.3516" fill="#FF0000" rx="11" ry="11" style="stroke:#181818;stroke-width:1.0;"/><path d="M597.875,494.3203 Q597.875,496.5859 596.4375,498.1016 Q595,499.6016 593.1094,499.6016 Q591.4063,499.6016 590.0313,498.3516 Q588.3438,496.7891 588.3438,494.3203 Q588.3438,491.8516 590.0313,490.2891 Q591.4063,489.0391 593.1094,489.0391 Q595,489.0391 596.4375,490.5391 Q597.875,492.0391 597.875,494.3203 Z M596.1719,494.3203 Q596.1719,492.7734 595.2344,491.7578 Q594.2969,490.7422 593.1094,490.7422 Q591.9219,490.7422 590.9844,491.7578 Q590.0469,492.7734 590.0469,494.3203 Q590.0469,495.8672 590.9844,496.8828 Q591.9219,497.8984 593.1094,497.8984 Q594.2969,497.8984 595.2344,496.8828 Q596.1719,495.8672 596.1719,494.3203 Z " fill="#000000"/><text fill="#000000" font-family="sans-serif" font-size="12" font-style="italic" lengthAdjust="spacing" textLength="77" x="604.5" y="490.457">&#171;case object&#187;</text><text fill="#000000" font-family="sans-serif" font-size="14" lengthAdjust="spacing" textLength="60" x="613" y="507.627">Exercices</text><line style="stroke:#181818;stroke-width:0.5;" x1="578.5" x2="681.5" y1="515.7031" y2="515.7031"/><line style="stroke:#181818;stroke-width:0.5;" x1="578.5" x2="681.5" y1="523.7031" y2="523.7031"/></g><!--class Jan--><g id="elem_Jan"><rect codeLine="12" fill="#F1F1F1" height="58.7031" id="Jan" rx="2.5" ry="2.5" style="stroke:#181818;stroke-width:0.5;" width="105" x="297.5" y="473"/><ellipse cx="312.5" cy="494.3516" fill="#FF0000" rx="11" ry="11" style="stroke:#181818;stroke-width:1.0;"/><path d="M317.875,494.3203 Q317.875,496.5859 316.4375,498.1016 Q315,499.6016 313.1094,499.6016 Q311.4063,499.6016 310.0313,498.3516 Q308.3438,496.7891 308.3438,494.3203 Q308.3438,491.8516 310.0313,490.2891 Q311.4063,489.0391 313.1094,489.0391 Q315,489.0391 316.4375,490.5391 Q317.875,492.0391 317.875,494.3203 Z M316.1719,494.3203 Q316.1719,492.7734 315.2344,491.7578 Q314.2969,490.7422 313.1094,490.7422 Q311.9219,490.7422 310.9844,491.7578 Q310.0469,492.7734 310.0469,494.3203 Q310.0469,495.8672 310.9844,496.8828 Q311.9219,497.8984 313.1094,497.8984 Q314.2969,497.8984 315.2344,496.8828 Q316.1719,495.8672 316.1719,494.3203 Z " fill="#000000"/><text fill="#000000" font-family="sans-serif" font-size="12" font-style="italic" lengthAdjust="spacing" textLength="77" x="324.5" y="490.457">&#171;case object&#187;</text><text fill="#000000" font-family="sans-serif" font-size="14" lengthAdjust="spacing" textLength="22" x="352" y="507.627">Jan</text><line style="stroke:#181818;stroke-width:0.5;" x1="298.5" x2="401.5" y1="515.7031" y2="515.7031"/><line style="stroke:#181818;stroke-width:0.5;" x1="298.5" x2="401.5" y1="523.7031" y2="523.7031"/></g><!--class Jul--><g id="elem_Jul"><rect codeLine="13" fill="#F1F1F1" height="58.7031" id="Jul" rx="2.5" ry="2.5" style="stroke:#181818;stroke-width:0.5;" width="105" x="437.5" y="473"/><ellipse cx="452.5" cy="494.3516" fill="#FF0000" rx="11" ry="11" style="stroke:#181818;stroke-width:1.0;"/><path d="M457.875,494.3203 Q457.875,496.5859 456.4375,498.1016 Q455,499.6016 453.1094,499.6016 Q451.4063,499.6016 450.0313,498.3516 Q448.3438,496.7891 448.3438,494.3203 Q448.3438,491.8516 450.0313,490.2891 Q451.4063,489.0391 453.1094,489.0391 Q455,489.0391 456.4375,490.5391 Q457.875,492.0391 457.875,494.3203 Z M456.1719,494.3203 Q456.1719,492.7734 455.2344,491.7578 Q454.2969,490.7422 453.1094,490.7422 Q451.9219,490.7422 450.9844,491.7578 Q450.0469,492.7734 450.0469,494.3203 Q450.0469,495.8672 450.9844,496.8828 Q451.9219,497.8984 453.1094,497.8984 Q454.2969,497.8984 455.2344,496.8828 Q456.1719,495.8672 456.1719,494.3203 Z " fill="#000000"/><text fill="#000000" font-family="sans-serif" font-size="12" font-style="italic" lengthAdjust="spacing" textLength="77" x="464.5" y="490.457">&#171;case object&#187;</text><text fill="#000000" font-family="sans-serif" font-size="14" lengthAdjust="spacing" textLength="17" x="494.5" y="507.627">Jul</text><line style="stroke:#181818;stroke-width:0.5;" x1="438.5" x2="541.5" y1="515.7031" y2="515.7031"/><line style="stroke:#181818;stroke-width:0.5;" x1="438.5" x2="541.5" y1="523.7031" y2="523.7031"/></g><!--class Lectures--><g id="elem_Lectures"><rect codeLine="15" fill="#F1F1F1" height="58.7031" id="Lectures" rx="2.5" ry="2.5" style="stroke:#181818;stroke-width:0.5;" width="105" x="717.5" y="473"/><ellipse cx="732.5" cy="494.3516" fill="#FF0000" rx="11" ry="11" style="stroke:#181818;stroke-width:1.0;"/><path d="M737.875,494.3203 Q737.875,496.5859 736.4375,498.1016 Q735,499.6016 733.1094,499.6016 Q731.4063,499.6016 730.0313,498.3516 Q728.3438,496.7891 728.3438,494.3203 Q728.3438,491.8516 730.0313,490.2891 Q731.4063,489.0391 733.1094,489.0391 Q735,489.0391 736.4375,490.5391 Q737.875,492.0391 737.875,494.3203 Z M736.1719,494.3203 Q736.1719,492.7734 735.2344,491.7578 Q734.2969,490.7422 733.1094,490.7422 Q731.9219,490.7422 730.9844,491.7578 Q730.0469,492.7734 730.0469,494.3203 Q730.0469,495.8672 730.9844,496.8828 Q731.9219,497.8984 733.1094,497.8984 Q734.2969,497.8984 735.2344,496.8828 Q736.1719,495.8672 736.1719,494.3203 Z " fill="#000000"/><text fill="#000000" font-family="sans-serif" font-size="12" font-style="italic" lengthAdjust="spacing" textLength="77" x="744.5" y="490.457">&#171;case object&#187;</text><text fill="#000000" font-family="sans-serif" font-size="14" lengthAdjust="spacing" textLength="55" x="755.5" y="507.627">Lectures</text><line style="stroke:#181818;stroke-width:0.5;" x1="718.5" x2="821.5" y1="515.7031" y2="515.7031"/><line style="stroke:#181818;stroke-width:0.5;" x1="718.5" x2="821.5" y1="523.7031" y2="523.7031"/></g><!--class Master--><g id="elem_Master"><rect codeLine="16" fill="#F1F1F1" height="58.7031" id="Master" rx="2.5" ry="2.5" style="stroke:#181818;stroke-width:0.5;" width="105" x="1137.5" y="473"/><ellipse cx="1152.5" cy="494.3516" fill="#FF0000" rx="11" ry="11" style="stroke:#181818;stroke-width:1.0;"/><path d="M1157.875,494.3203 Q1157.875,496.5859 1156.4375,498.1016 Q1155,499.6016 1153.1094,499.6016 Q1151.4063,499.6016 1150.0313,498.3516 Q1148.3438,496.7891 1148.3438,494.3203 Q1148.3438,491.8516 1150.0313,490.2891 Q1151.4063,489.0391 1153.1094,489.0391 Q1155,489.0391 1156.4375,490.5391 Q1157.875,492.0391 1157.875,494.3203 Z M1156.1719,494.3203 Q1156.1719,492.7734 1155.2344,491.7578 Q1154.2969,490.7422 1153.1094,490.7422 Q1151.9219,490.7422 1150.9844,491.7578 Q1150.0469,492.7734 1150.0469,494.3203 Q1150.0469,495.8672 1150.9844,496.8828 Q1151.9219,497.8984 1153.1094,497.8984 Q1154.2969,497.8984 1155.2344,496.8828 Q1156.1719,495.8672 1156.1719,494.3203 Z " fill="#000000"/><text fill="#000000" font-family="sans-serif" font-size="12" font-style="italic" lengthAdjust="spacing" textLength="77" x="1164.5" y="490.457">&#171;case object&#187;</text><text fill="#000000" font-family="sans-serif" font-size="14" lengthAdjust="spacing" textLength="43" x="1181.5" y="507.627">Master</text><line style="stroke:#181818;stroke-width:0.5;" x1="1138.5" x2="1241.5" y1="515.7031" y2="515.7031"/><line style="stroke:#181818;stroke-width:0.5;" x1="1138.5" x2="1241.5" y1="523.7031" y2="523.7031"/></g><!--class Phd--><g id="elem_Phd"><rect codeLine="17" fill="#F1F1F1" height="58.7031" id="Phd" rx="2.5" ry="2.5" style="stroke:#181818;stroke-width:0.5;" width="105" x="1277.5" y="473"/><ellipse cx="1292.5" cy="494.3516" fill="#FF0000" rx="11" ry="11" style="stroke:#181818;stroke-width:1.0;"/><path d="M1297.875,494.3203 Q1297.875,496.5859 1296.4375,498.1016 Q1295,499.6016 1293.1094,499.6016 Q1291.4063,499.6016 1290.0313,498.3516 Q1288.3438,496.7891 1288.3438,494.3203 Q1288.3438,491.8516 1290.0313,490.2891 Q1291.4063,489.0391 1293.1094,489.0391 Q1295,489.0391 1296.4375,490.5391 Q1297.875,492.0391 1297.875,494.3203 Z M1296.1719,494.3203 Q1296.1719,492.7734 1295.2344,491.7578 Q1294.2969,490.7422 1293.1094,490.7422 Q1291.9219,490.7422 1290.9844,491.7578 Q1290.0469,492.7734 1290.0469,494.3203 Q1290.0469,495.8672 1290.9844,496.8828 Q1291.9219,497.8984 1293.1094,497.8984 Q1294.2969,497.8984 1295.2344,496.8828 Q1296.1719,495.8672 1296.1719,494.3203 Z " fill="#000000"/><text fill="#000000" font-family="sans-serif" font-size="12" font-style="italic" lengthAdjust="spacing" textLength="77" x="1304.5" y="490.457">&#171;case object&#187;</text><text fill="#000000" font-family="sans-serif" font-size="14" lengthAdjust="spacing" textLength="25" x="1330.5" y="507.627">Phd</text><line style="stroke:#181818;stroke-width:0.5;" x1="1278.5" x2="1381.5" y1="515.7031" y2="515.7031"/><line style="stroke:#181818;stroke-width:0.5;" x1="1278.5" x2="1381.5" y1="523.7031" y2="523.7031"/></g><!--class Practice--><g id="elem_Practice"><rect codeLine="18" fill="#F1F1F1" height="58.7031" id="Practice" rx="2.5" ry="2.5" style="stroke:#181818;stroke-width:0.5;" width="105" x="857.5" y="473"/><ellipse cx="872.5" cy="494.3516" fill="#FF0000" rx="11" ry="11" style="stroke:#181818;stroke-width:1.0;"/><path d="M877.875,494.3203 Q877.875,496.5859 876.4375,498.1016 Q875,499.6016 873.1094,499.6016 Q871.4063,499.6016 870.0313,498.3516 Q868.3438,496.7891 868.3438,494.3203 Q868.3438,491.8516 870.0313,490.2891 Q871.4063,489.0391 873.1094,489.0391 Q875,489.0391 876.4375,490.5391 Q877.875,492.0391 877.875,494.3203 Z M876.1719,494.3203 Q876.1719,492.7734 875.2344,491.7578 Q874.2969,490.7422 873.1094,490.7422 Q871.9219,490.7422 870.9844,491.7578 Q870.0469,492.7734 870.0469,494.3203 Q870.0469,495.8672 870.9844,496.8828 Q871.9219,497.8984 873.1094,497.8984 Q874.2969,497.8984 875.2344,496.8828 Q876.1719,495.8672 876.1719,494.3203 Z " fill="#000000"/><text fill="#000000" font-family="sans-serif" font-size="12" font-style="italic" lengthAdjust="spacing" textLength="77" x="884.5" y="490.457">&#171;case object&#187;</text><text fill="#000000" font-family="sans-serif" font-size="14" lengthAdjust="spacing" textLength="51" x="897.5" y="507.627">Practice</text><line style="stroke:#181818;stroke-width:0.5;" x1="858.5" x2="961.5" y1="515.7031" y2="515.7031"/><line style="stroke:#181818;stroke-width:0.5;" x1="858.5" x2="961.5" y1="523.7031" y2="523.7031"/></g><!--class SPType--><g id="elem_SPType"><rect codeLine="19" fill="#F1F1F1" height="58.7031" id="SPType" rx="2.5" ry="2.5" style="stroke:#181818;stroke-width:0.5;" width="102" x="999" y="336.5"/><ellipse cx="1014" cy="357.8516" fill="#B4A7E5" rx="11" ry="11" style="stroke:#181818;stroke-width:1.0;"/><path d="M1014.9531,354.4922 L1014.9531,361.1484 L1016.6719,361.1484 Q1017.2813,361.1484 1017.5469,361.3828 Q1017.8125,361.6172 1017.8125,362.0078 Q1017.8125,362.3828 1017.5469,362.6172 Q1017.2813,362.8516 1016.6719,362.8516 L1011.5313,362.8516 Q1010.9219,362.8516 1010.6563,362.6172 Q1010.3906,362.3828 1010.3906,361.9922 Q1010.3906,361.6172 1010.6563,361.3828 Q1010.9219,361.1484 1011.5313,361.1484 L1013.25,361.1484 L1013.25,354.4922 L1011.5313,354.4922 Q1010.9219,354.4922 1010.6563,354.2578 Q1010.3906,354.0234 1010.3906,353.6328 Q1010.3906,353.2578 1010.6563,353.0234 Q1010.9219,352.7891 1011.5313,352.7891 L1016.6719,352.7891 Q1017.2813,352.7891 1017.5469,353.0234 Q1017.8125,353.2578 1017.8125,353.6328 Q1017.8125,354.0234 1017.5469,354.2578 Q1017.2813,354.4922 1016.6719,354.4922 L1014.9531,354.4922 Z " fill="#000000"/><text fill="#000000" font-family="sans-serif" font-size="12" font-style="italic" lengthAdjust="spacing" textLength="74" x="1026" y="353.957">&#171;sealed trait&#187;</text><text fill="#000000" font-family="sans-serif" font-size="14" font-style="italic" lengthAdjust="spacing" textLength="50" x="1038" y="371.127">SPType</text><line style="stroke:#181818;stroke-width:0.5;" x1="1000" x2="1100" y1="379.2031" y2="379.2031"/><line style="stroke:#181818;stroke-width:0.5;" x1="1000" x2="1100" y1="387.2031" y2="387.2031"/></g><!--class SealedConceptObject--><g id="elem_SealedConceptObject"><rect codeLine="26" fill="#F1F1F1" height="111.5313" id="SealedConceptObject" rx="2.5" ry="2.5" style="stroke:#181818;stroke-width:0.5;" width="205" x="667.5" y="86"/><ellipse cx="693.3" cy="107.3516" fill="#B4A7E5" rx="11" ry="11" style="stroke:#181818;stroke-width:1.0;"/><path d="M694.2531,103.9922 L694.2531,110.6484 L695.9719,110.6484 Q696.5813,110.6484 696.8469,110.8828 Q697.1125,111.1172 697.1125,111.5078 Q697.1125,111.8828 696.8469,112.1172 Q696.5813,112.3516 695.9719,112.3516 L690.8313,112.3516 Q690.2219,112.3516 689.9563,112.1172 Q689.6906,111.8828 689.6906,111.4922 Q689.6906,111.1172 689.9563,110.8828 Q690.2219,110.6484 690.8313,110.6484 L692.55,110.6484 L692.55,103.9922 L690.8313,103.9922 Q690.2219,103.9922 689.9563,103.7578 Q689.6906,103.5234 689.6906,103.1328 Q689.6906,102.7578 689.9563,102.5234 Q690.2219,102.2891 690.8313,102.2891 L695.9719,102.2891 Q696.5813,102.2891 696.8469,102.5234 Q697.1125,102.7578 697.1125,103.1328 Q697.1125,103.5234 696.8469,103.7578 Q696.5813,103.9922 695.9719,103.9922 L694.2531,103.9922 Z " fill="#000000"/><text fill="#000000" font-family="sans-serif" font-size="12" font-style="italic" lengthAdjust="spacing" textLength="74" x="741.7" y="103.457">&#171;sealed trait&#187;</text><text fill="#000000" font-family="sans-serif" font-size="14" font-style="italic" lengthAdjust="spacing" textLength="138" x="709.7" y="120.627">SealedConceptObject</text><rect fill="#FFFFFF" height="17.0938" style="stroke:#181818;stroke-width:1.0;stroke-dasharray:2.0,2.0;" width="9" x="866.5" y="83"/><text fill="#000000" font-family="sans-serif" font-size="12" font-style="italic" lengthAdjust="spacing" textLength="7" x="867.5" y="96.457">T</text><line style="stroke:#181818;stroke-width:0.5;" x1="668.5" x2="871.5" y1="128.7031" y2="128.7031"/><line style="stroke:#181818;stroke-width:0.5;" x1="668.5" x2="871.5" y1="136.7031" y2="136.7031"/><ellipse cx="678.5" cy="151.0078" fill="#84BE84" rx="3" ry="3" style="stroke:#038048;stroke-width:1.0;"/><text fill="#000000" font-family="sans-serif" font-size="14" font-style="italic" lengthAdjust="spacing" textLength="105" x="687.5" y="155.2363">jsonKey(): String</text><ellipse cx="678.5" cy="168.6172" fill="#84BE84" rx="3" ry="3" style="stroke:#038048;stroke-width:1.0;"/><text fill="#000000" font-family="sans-serif" font-size="14" font-style="italic" lengthAdjust="spacing" textLength="109" x="687.5" y="172.8457">ALL(): Vector&lt;T&gt;</text><ellipse cx="678.5" cy="186.2266" fill="#84BE84" rx="3" ry="3" style="stroke:#038048;stroke-width:1.0;"/><text fill="#000000" font-family="sans-serif" font-size="14" font-style="italic" lengthAdjust="spacing" textLength="179" x="687.5" y="190.4551">ALL_MAP(): Map&lt;String, T&gt;</text></g><!--class Semester--><g id="elem_Semester"><rect codeLine="32" fill="#F1F1F1" height="93.9219" id="Semester" rx="2.5" ry="2.5" style="stroke:#181818;stroke-width:0.5;" width="207" x="46.5" y="319"/><ellipse cx="110.75" cy="340.3516" fill="#B4A7E5" rx="11" ry="11" style="stroke:#181818;stroke-width:1.0;"/><path d="M111.7031,336.9922 L111.7031,343.6484 L113.4219,343.6484 Q114.0313,343.6484 114.2969,343.8828 Q114.5625,344.1172 114.5625,344.5078 Q114.5625,344.8828 114.2969,345.1172 Q114.0313,345.3516 113.4219,345.3516 L108.2813,345.3516 Q107.6719,345.3516 107.4063,345.1172 Q107.1406,344.8828 107.1406,344.4922 Q107.1406,344.1172 107.4063,343.8828 Q107.6719,343.6484 108.2813,343.6484 L110,343.6484 L110,336.9922 L108.2813,336.9922 Q107.6719,336.9922 107.4063,336.7578 Q107.1406,336.5234 107.1406,336.1328 Q107.1406,335.7578 107.4063,335.5234 Q107.6719,335.2891 108.2813,335.2891 L113.4219,335.2891 Q114.0313,335.2891 114.2969,335.5234 Q114.5625,335.7578 114.5625,336.1328 Q114.5625,336.5234 114.2969,336.7578 Q114.0313,336.9922 113.4219,336.9922 L111.7031,336.9922 Z " fill="#000000"/><text fill="#000000" font-family="sans-serif" font-size="12" font-style="italic" lengthAdjust="spacing" textLength="74" x="129.25" y="336.457">&#171;sealed trait&#187;</text><text fill="#000000" font-family="sans-serif" font-size="14" font-style="italic" lengthAdjust="spacing" textLength="60" x="136.25" y="353.627">Semester</text><line style="stroke:#181818;stroke-width:0.5;" x1="47.5" x2="252.5" y1="361.7031" y2="361.7031"/><ellipse cx="57.5" cy="376.0078" fill="none" rx="3" ry="3" style="stroke:#038048;stroke-width:1.0;"/><text fill="#000000" font-family="sans-serif" font-size="14" lengthAdjust="spacing" textLength="181" x="66.5" y="380.2363">makeupSession: ExaSession</text><line style="stroke:#181818;stroke-width:0.5;" x1="47.5" x2="252.5" y1="387.3125" y2="387.3125"/><ellipse cx="57.5" cy="401.6172" fill="#84BE84" rx="3" ry="3" style="stroke:#038048;stroke-width:1.0;"/><text fill="#000000" font-family="sans-serif" font-size="14" lengthAdjust="spacing" textLength="139" x="66.5" y="405.8457">session(): ExaSession</text></g><!--class Spring--><g id="elem_Spring"><rect codeLine="22" fill="#F1F1F1" height="58.7031" id="Spring" rx="2.5" ry="2.5" style="stroke:#181818;stroke-width:0.5;" width="105" x="46.5" y="592"/><ellipse cx="61.5" cy="613.3516" fill="#FF0000" rx="11" ry="11" style="stroke:#181818;stroke-width:1.0;"/><path d="M66.875,613.3203 Q66.875,615.5859 65.4375,617.1016 Q64,618.6016 62.1094,618.6016 Q60.4063,618.6016 59.0313,617.3516 Q57.3438,615.7891 57.3438,613.3203 Q57.3438,610.8516 59.0313,609.2891 Q60.4063,608.0391 62.1094,608.0391 Q64,608.0391 65.4375,609.5391 Q66.875,611.0391 66.875,613.3203 Z M65.1719,613.3203 Q65.1719,611.7734 64.2344,610.7578 Q63.2969,609.7422 62.1094,609.7422 Q60.9219,609.7422 59.9844,610.7578 Q59.0469,611.7734 59.0469,613.3203 Q59.0469,614.8672 59.9844,615.8828 Q60.9219,616.8984 62.1094,616.8984 Q63.2969,616.8984 64.2344,615.8828 Q65.1719,614.8672 65.1719,613.3203 Z " fill="#000000"/><text fill="#000000" font-family="sans-serif" font-size="12" font-style="italic" lengthAdjust="spacing" textLength="77" x="73.5" y="609.457">&#171;case object&#187;</text><text fill="#000000" font-family="sans-serif" font-size="14" lengthAdjust="spacing" textLength="41" x="91.5" y="626.627">Spring</text><line style="stroke:#181818;stroke-width:0.5;" x1="47.5" x2="150.5" y1="634.7031" y2="634.7031"/><line style="stroke:#181818;stroke-width:0.5;" x1="47.5" x2="150.5" y1="642.7031" y2="642.7031"/></g><!--class Autumn--><g id="elem_Autumn"><rect codeLine="23" fill="#F1F1F1" height="58.7031" id="Autumn" rx="2.5" ry="2.5" style="stroke:#181818;stroke-width:0.5;" width="105" x="186.5" y="592"/><ellipse cx="201.5" cy="613.3516" fill="#FF0000" rx="11" ry="11" style="stroke:#181818;stroke-width:1.0;"/><path d="M206.875,613.3203 Q206.875,615.5859 205.4375,617.1016 Q204,618.6016 202.1094,618.6016 Q200.4063,618.6016 199.0313,617.3516 Q197.3438,615.7891 197.3438,613.3203 Q197.3438,610.8516 199.0313,609.2891 Q200.4063,608.0391 202.1094,608.0391 Q204,608.0391 205.4375,609.5391 Q206.875,611.0391 206.875,613.3203 Z M205.1719,613.3203 Q205.1719,611.7734 204.2344,610.7578 Q203.2969,609.7422 202.1094,609.7422 Q200.9219,609.7422 199.9844,610.7578 Q199.0469,611.7734 199.0469,613.3203 Q199.0469,614.8672 199.9844,615.8828 Q200.9219,616.8984 202.1094,616.8984 Q203.2969,616.8984 204.2344,615.8828 Q205.1719,614.8672 205.1719,613.3203 Z " fill="#000000"/><text fill="#000000" font-family="sans-serif" font-size="12" font-style="italic" lengthAdjust="spacing" textLength="77" x="213.5" y="609.457">&#171;case object&#187;</text><text fill="#000000" font-family="sans-serif" font-size="14" lengthAdjust="spacing" textLength="48" x="228" y="626.627">Autumn</text><line style="stroke:#181818;stroke-width:0.5;" x1="187.5" x2="290.5" y1="634.7031" y2="634.7031"/><line style="stroke:#181818;stroke-width:0.5;" x1="187.5" x2="290.5" y1="642.7031" y2="642.7031"/></g><!--class Yearly--><g id="elem_Yearly"><rect codeLine="24" fill="#F1F1F1" height="58.7031" id="Yearly" rx="2.5" ry="2.5" style="stroke:#181818;stroke-width:0.5;" width="105" x="326.5" y="592"/><ellipse cx="341.5" cy="613.3516" fill="#FF0000" rx="11" ry="11" style="stroke:#181818;stroke-width:1.0;"/><path d="M346.875,613.3203 Q346.875,615.5859 345.4375,617.1016 Q344,618.6016 342.1094,618.6016 Q340.4063,618.6016 339.0313,617.3516 Q337.3438,615.7891 337.3438,613.3203 Q337.3438,610.8516 339.0313,609.2891 Q340.4063,608.0391 342.1094,608.0391 Q344,608.0391 345.4375,609.5391 Q346.875,611.0391 346.875,613.3203 Z M345.1719,613.3203 Q345.1719,611.7734 344.2344,610.7578 Q343.2969,609.7422 342.1094,609.7422 Q340.9219,609.7422 339.9844,610.7578 Q339.0469,611.7734 339.0469,613.3203 Q339.0469,614.8672 339.9844,615.8828 Q340.9219,616.8984 342.1094,616.8984 Q343.2969,616.8984 344.2344,615.8828 Q345.1719,614.8672 345.1719,613.3203 Z " fill="#000000"/><text fill="#000000" font-family="sans-serif" font-size="12" font-style="italic" lengthAdjust="spacing" textLength="77" x="353.5" y="609.457">&#171;case object&#187;</text><text fill="#000000" font-family="sans-serif" font-size="14" lengthAdjust="spacing" textLength="40" x="372" y="626.627">Yearly</text><line style="stroke:#181818;stroke-width:0.5;" x1="327.5" x2="430.5" y1="634.7031" y2="634.7031"/><line style="stroke:#181818;stroke-width:0.5;" x1="327.5" x2="430.5" y1="642.7031" y2="642.7031"/></g><!--reverse link ExaSession to Jan--><g id="link_ExaSession_Jan"><path codeLine="40" d="M350,400.62 C350,400.62 350,472.94 350,472.94 " fill="none" id="ExaSession-backto-Jan" style="stroke:#181818;stroke-width:1.0;stroke-dasharray:7.0,7.0;"/><polygon fill="#181818" points="350,395.62,346,404.62,350,400.62,354,404.62,350,395.62" style="stroke:#181818;stroke-width:1.0;"/></g><!--reverse link ExaSession to Aug--><g id="link_ExaSession_Aug"><path codeLine="41" d="M292.28,376 C292.28,376 258,376 258,376 C258,376 258,435.45 258,472.84 " fill="none" id="ExaSession-backto-Aug" style="stroke:#181818;stroke-width:1.0;stroke-dasharray:7.0,7.0;"/><polygon fill="#181818" points="297.28,376,288.28,372,292.28,376,288.28,380,297.28,376" style="stroke:#181818;stroke-width:1.0;"/></g><!--reverse link ExaSession to Jul--><g id="link_ExaSession_Jul"><path codeLine="42" d="M407.53,376 C407.53,376 490,376 490,376 C490,376 490,435.45 490,472.84 " fill="none" id="ExaSession-backto-Jul" style="stroke:#181818;stroke-width:1.0;stroke-dasharray:7.0,7.0;"/><polygon fill="#181818" points="402.53,376,411.53,380,407.53,376,411.53,372,402.53,376" style="stroke:#181818;stroke-width:1.0;"/></g><!--reverse link Semester to ExaSession--><g id="link_Semester_ExaSession"><path codeLine="43" d="M266.51,357 C266.51,357 297.26,357 297.26,357 " fill="none" id="Semester-backto-ExaSession" style="stroke:#181818;stroke-width:1.0;"/><polygon fill="#181818" points="253.51,357,259.5144,360.9934,265.51,356.9868,259.5056,352.9934,253.51,357" style="stroke:#181818;stroke-width:1.0;"/></g><!--reverse link SPType to Bachelor--><g id="link_SPType_Bachelor"><path codeLine="44" d="M1067,400.62 C1067,400.62 1067,472.94 1067,472.94 " fill="none" id="SPType-backto-Bachelor" style="stroke:#181818;stroke-width:1.0;stroke-dasharray:7.0,7.0;"/><polygon fill="#181818" points="1067,395.62,1063,404.62,1067,400.62,1071,404.62,1067,395.62" style="stroke:#181818;stroke-width:1.0;"/></g><!--reverse link SPType to Master--><g id="link_SPType_Master"><path codeLine="45" d="M1106.24,366 C1106.24,366 1119.5,366 1119.5,366 C1119.5,366 1119.5,503 1119.5,503 C1119.5,503 1127.09,503 1137.29,503 " fill="none" id="SPType-backto-Master" style="stroke:#181818;stroke-width:1.0;stroke-dasharray:7.0,7.0;"/><polygon fill="#181818" points="1101.24,366,1110.24,370,1106.24,366,1110.24,362,1101.24,366" style="stroke:#181818;stroke-width:1.0;"/></g><!--reverse link SPType to Phd--><g id="link_SPType_Phd"><path codeLine="46" d="M1033,400.56 C1033,400.56 1033,405 1033,405 C1033,405 1330,405 1330,405 C1330,405 1330,444.29 1330,472.98 " fill="none" id="SPType-backto-Phd" style="stroke:#181818;stroke-width:1.0;stroke-dasharray:7.0,7.0;"/><polygon fill="#181818" points="1033,395.56,1029,404.56,1033,400.56,1037,404.56,1033,395.56" style="stroke:#181818;stroke-width:1.0;"/></g><!--reverse link SealedConceptObject to Semester--><g id="link_SealedConceptObject_Semester"><path codeLine="47" d="M672.5,218.06 C672.5,218.06 672.5,328 672.5,328 C672.5,328 405.87,328 253.54,328 " fill="none" id="SealedConceptObject-backto-Semester" style="stroke:#008200;stroke-width:1.0;"/><polygon fill="none" points="665.5,218.06,672.5,198.06,679.5,218.06,665.5,218.06" style="stroke:#008200;stroke-width:1.0;"/></g><!--reverse link Semester to Spring--><g id="link_Semester_Spring"><path codeLine="48" d="M99,418.16 C99,418.16 99,591.77 99,591.77 " fill="none" id="Semester-backto-Spring" style="stroke:#181818;stroke-width:1.0;stroke-dasharray:7.0,7.0;"/><polygon fill="#181818" points="99,413.16,95,422.16,99,418.16,103,422.16,99,413.16" style="stroke:#181818;stroke-width:1.0;"/></g><!--reverse link Semester to Autumn--><g id="link_Semester_Autumn"><path codeLine="49" d="M258.71,409 C258.71,409 277,409 277,409 C277,409 277,533.56 277,591.95 " fill="none" id="Semester-backto-Autumn" style="stroke:#181818;stroke-width:1.0;stroke-dasharray:7.0,7.0;"/><polygon fill="#181818" points="253.71,409,262.71,413,258.71,409,262.71,405,253.71,409" style="stroke:#181818;stroke-width:1.0;"/></g><!--reverse link Semester to Yearly--><g id="link_Semester_Yearly"><path codeLine="50" d="M258.61,400 C258.61,400 417,400 417,400 C417,400 417,531.17 417,591.63 " fill="none" id="Semester-backto-Yearly" style="stroke:#181818;stroke-width:1.0;stroke-dasharray:7.0,7.0;"/><polygon fill="#181818" points="253.61,400,262.61,404,258.61,400,262.61,396,253.61,400" style="stroke:#181818;stroke-width:1.0;"/></g><!--reverse link SealedConceptObject to ExaSession--><g id="link_SealedConceptObject_ExaSession"><path codeLine="51" d="M677.5,218.21 C677.5,218.21 677.5,357 677.5,357 C677.5,357 495.2,357 402.62,357 " fill="none" id="SealedConceptObject-backto-ExaSession" style="stroke:#008200;stroke-width:1.0;"/><polygon fill="none" points="670.5,218.21,677.5,198.21,684.5,218.21,670.5,218.21" style="stroke:#008200;stroke-width:1.0;"/></g><!--reverse link CourseActivity to Lectures--><g id="link_CourseActivity_Lectures"><path codeLine="52" d="M770,400.62 C770,400.62 770,472.94 770,472.94 " fill="none" id="CourseActivity-backto-Lectures" style="stroke:#181818;stroke-width:1.0;stroke-dasharray:7.0,7.0;"/><polygon fill="#181818" points="770,395.62,766,404.62,770,400.62,774,404.62,770,395.62" style="stroke:#181818;stroke-width:1.0;"/></g><!--reverse link CourseActivity to Exercices--><g id="link_CourseActivity_Exercices"><path codeLine="53" d="M713.5,400.73 C713.5,400.73 713.5,503 713.5,503 C713.5,503 699.45,503 682.88,503 " fill="none" id="CourseActivity-backto-Exercices" style="stroke:#181818;stroke-width:1.0;stroke-dasharray:7.0,7.0;"/><polygon fill="#181818" points="713.5,395.73,709.5,404.73,713.5,400.73,717.5,404.73,713.5,395.73" style="stroke:#181818;stroke-width:1.0;"/></g><!--reverse link CourseActivity to Practice--><g id="link_CourseActivity_Practice"><path codeLine="54" d="M826.5,400.73 C826.5,400.73 826.5,503 826.5,503 C826.5,503 840.55,503 857.12,503 " fill="none" id="CourseActivity-backto-Practice" style="stroke:#181818;stroke-width:1.0;stroke-dasharray:7.0,7.0;"/><polygon fill="#181818" points="826.5,395.73,822.5,404.73,826.5,400.73,830.5,404.73,826.5,395.73" style="stroke:#181818;stroke-width:1.0;"/></g><!--reverse link SealedConceptObject to SPType--><g id="link_SealedConceptObject_SPType"><path codeLine="55" d="M865,218.24 C865,218.24 865,366 865,366 C865,366 944.2,366 998.96,366 " fill="none" id="SealedConceptObject-backto-SPType" style="stroke:#008200;stroke-width:1.0;"/><polygon fill="none" points="858,218.24,865,198.24,872,218.24,858,218.24" style="stroke:#008200;stroke-width:1.0;"/></g><!--reverse link SealedConceptObject to CourseHours--><g id="link_SealedConceptObject_CourseHours"><path codeLine="56" d="M892.64,142 C892.64,142 1194,142 1194,142 C1194,142 1194,275.32 1194,336.25 " fill="none" id="SealedConceptObject-backto-CourseHours" style="stroke:#008200;stroke-width:1.0;"/><polygon fill="none" points="892.64,149,872.64,142,892.64,135,892.64,149" style="stroke:#008200;stroke-width:1.0;"/></g><!--reverse link SealedConceptObject to CourseActivity--><g id="link_SealedConceptObject_CourseActivity"><path codeLine="57" d="M770,218.24 C770,218.24 770,336.22 770,336.22 " fill="none" id="SealedConceptObject-backto-CourseActivity" style="stroke:#008200;stroke-width:1.0;"/><polygon fill="none" points="763,218.24,770,198.24,777,218.24,763,218.24" style="stroke:#008200;stroke-width:1.0;"/></g><!--SRC=[bLLTQzim57tNhxYmbtQhIzZJACQGbK9f4nf86OmnngryMwjnP2F9ew7jVwzaguwJs8aYZ26-vnpTx-Y5a2KgN48k99bLIL0eanMCbSWN-4J0itDDc5FA2ycfDF3A04WQOLOmhfuWZa_kpXIbfy1HM_R3Ct6J96lGJ-GPvONQWnJIa7f4Jd1PL4hJc1lntt7Z69hBmIWK1ceqpr5hZxnsRmUh9HlBbkJL2yv9Qr78FhcrdrSlfBZWf0STNMDlK1uE_ARA0wGczaEbzjpQ8gUeRKo7SRCi3G0fj4cswGcfodnsxpgZjneTL6sxRDhahjQ9xvF3h2Nvk7fmtjjvgOGSx3NeTgIfbW6r-KseyjM-yXoCoyq1m3TunGTjN3RVuLaNyfPM9wSNC3VEurt8U39nvbzMf51MfXVnRpgUETGKoxWHEeCQ-ixwS_Vfon8NL9M-tIywhU_jkldbj3TiLjS-pBNrvecYFodgZDA_LPb0TvRQmzmME9xbfkDurkx7g2g_Gfi9rcwR8LdVonk7-T62urXkqFQ6qCjgYzPbVHcDVdmVZImjUdF4tPQpn6O81gwBaauM_1Y4GFqaX41xaX_cURlZXXArjVVPUXU74LmnFXTQw1sxnGcCfllFSmIHRRiSocCV]--></g></svg>