<?xml version="1.0" encoding="utf-8"?>
<svg version="1.1" id="Layer_1" viewBox="0 0 512 512" xmlns="http://www.w3.org/2000/svg">
  <g>
    <g>
      <path style="fill:#C30B15;"
            d="M 511.344 274.266 C 511.77 268.231 512 262.143 512 256 C 512 114.615 397.385 0 256 0 C 114.615 0 0 114.615 0 256 C 0 373.769 79.53 472.949 187.809 502.801 L 511.344 274.266 Z"/>
    </g>
  </g>
  <g>
    <g>
      <path style="fill:#85080E;"
            d="M 511.344 274.266 L 314.991 77.913 L 119.096 434.087 L 187.81 502.801 C 209.522 508.787 232.385 512 256 512 C 391.243 512 501.976 407.125 511.344 274.266 Z"/>
    </g>
  </g>
  <polygon style="fill:#FFFFFF;" points="278.328,333.913 255.711,77.913 119.096,77.913 119.096,311.652 "/>
  <g>
    <g>
      <polygon style="fill:#E8E6E6;"
               points="392.904 311.652 392.904 155.826 337.252 133.565 314.991 77.913 255.711 77.913 256.067 333.913"/>
    </g>
  </g>
  <polygon style="fill:#FFFFFF;" points="314.991,155.826 314.991,77.913 392.904,155.826 "/>
  <g>
    <g>
      <g>
        <rect x="119.096" y="311.652" style="fill:#FC0F1A;" width="273.809" height="122.435"/>
      </g>
    </g>
  </g>
  <g>
    <g>
      <path style="fill:#FFFFFF;"
            d="M204.871,346.387c13.547,0,21.341,6.659,21.341,18.465c0,12.412-7.795,19.601-21.341,19.601h-9.611 v14.909h-13.471v-52.975L204.871,346.387L204.871,346.387z M195.26,373.858h8.93c5.904,0,9.308-2.952,9.308-8.552 c0-5.525-3.406-8.324-9.308-8.324h-8.93V373.858z"/>
      <path style="fill:#FFFFFF;"
            d="M257.928,346.387c16.649,0,28.152,10.746,28.152,26.487c0,15.666-11.655,26.488-28.683,26.488 h-22.25v-52.975H257.928z M248.619,388.615h9.611c8.249,0,14.151-6.357,14.151-15.665c0-9.384-6.205-15.817-14.757-15.817h-9.006 V388.615z"/>
      <path style="fill:#FFFFFF;"
            d="M308.563,356.982v12.26h23.763v10.596h-23.763v19.525h-13.471v-52.975h39.277v10.595h-25.806 V356.982z"/>
    </g>
  </g>
  <title>cloud computing</title>
  <g transform="matrix(1.060615, 0, 0, 1.13457, -12.647787, -35.259045)" style="">
    <g id="cloud_computing" data-name="cloud computing"
       transform="matrix(2.962429, 0, 0, 2.860568, 158.319626, 113.265656)" style="">
      <path
          d="M58.06,13.14a3.984,3.984,0,0,0-4.42,1.71,4.958,4.958,0,0,0,.02-3.66,4.97,4.97,0,0,0-7.37-2.38A5.965,5.965,0,0,0,42,7a5.427,5.427,0,0,0-1.35.16,5.994,5.994,0,0,0-4.62,5.26,3.973,3.973,0,0,0-3.54-1.39c-1.9.24-4.18,3.48-4.46,5.57l-.06-.01a4.987,4.987,0,0,0-7.68-4.78,6,6,0,0,0-10.26,3.61,3.973,3.973,0,0,0-3.54-1.39A4.119,4.119,0,0,0,3,18.17V20a4,4,0,0,0,4,4H31a3.992,3.992,0,0,0,3.87-3H57a4.006,4.006,0,0,0,3.89-4.97A3.935,3.935,0,0,0,58.06,13.14Z"
          style="fill:#78b9eb"/>
      <circle cx="58" cy="53" r="3" style="fill:#78b9eb"/>
      <path d="M32,37c-6.08,0-11-1.34-11-3V58c0,1.66,4.92,3,11,3s11-1.34,11-3V34C43,35.66,38.08,37,32,37Z"
            style="fill:#78b9eb"/>
      <circle cx="6" cy="53" r="3" style="fill:#78b9eb"/>
      <path
          d="M58,49a4,4,0,0,0-3.858,3H44V48h7a3,3,0,0,0,3-3V22h3a5,5,0,0,0,1.312-9.828,5.058,5.058,0,0,0-3.341.267,6.267,6.267,0,0,0-.378-1.609,5.968,5.968,0,0,0-8.159-3.246A6.932,6.932,0,0,0,42,6a7.091,7.091,0,0,0-.783.045,5.956,5.956,0,0,0-7.783-2.461,7,7,0,0,0-11.027,3.05,4.936,4.936,0,0,0-3.041-.6,5.138,5.138,0,0,0-4.1,3.02,6.95,6.95,0,0,0-5.856,4.574,4.977,4.977,0,0,0-3.047-.592A5.1,5.1,0,0,0,2,18.166V20a5.006,5.006,0,0,0,5,5h3V45a3,3,0,0,0,3,3h7v4H9.858a4,4,0,1,0,0,2H20v4c0,3.157,7.543,4,12,4s12-.843,12-4V54H54.142A3.993,3.993,0,1,0,58,49ZM6,55a2,2,0,1,1,2-2A2,2,0,0,1,6,55ZM22,34.033c.3-.715,3.98-2.033,10-2.033,5.927,0,9.583,1.278,9.986,2-.4.722-4.059,2-9.986,2-6.02,0-9.695-1.318-10-1.95Zm0,2.345C24.547,37.61,28.979,38,32,38s7.453-.39,10-1.622v3.589C41.7,40.682,38.02,42,32,42c-6.044,0-9.727-1.329-10-2Zm0,6C24.547,43.61,28.979,44,32,44s7.453-.39,10-1.622v3.589C41.7,46.682,38.02,48,32,48c-6.044,0-9.727-1.329-10-2Zm0,6C24.547,49.61,28.979,50,32,50s7.453-.39,10-1.622v3.589C41.7,52.682,38.02,54,32,54c-6.044,0-9.727-1.329-10-2ZM45.574,9.507a1,1,0,0,0,1.262.14,3.977,3.977,0,0,1,3.137-.536,4.024,4.024,0,0,1,2.751,2.432,3.951,3.951,0,0,1-.013,2.936,1,1,0,0,0,1.772.909,2.988,2.988,0,0,1,3.332-1.279,2.924,2.924,0,0,1,2.1,2.151A3.007,3.007,0,0,1,57,20H36a5.154,5.154,0,0,0-.138-1.2,4.956,4.956,0,0,0-3.545-3.627,5.059,5.059,0,0,0-2.813.071c.738-1.522,2.137-3.094,3.116-3.219a2.952,2.952,0,0,1,2.655,1.049,1,1,0,0,0,1.754-.555A4.989,4.989,0,0,1,40.9,8.129,4.379,4.379,0,0,1,42,8,4.95,4.95,0,0,1,45.574,9.507ZM19.617,8.022a2.952,2.952,0,0,1,2.654,1.049,1,1,0,0,0,1.754-.556,5,5,0,0,1,8.549-3.008,1,1,0,0,0,1.262.14,3.967,3.967,0,0,1,3.136-.536,4.017,4.017,0,0,1,2.224,1.5,6.969,6.969,0,0,0-3.785,4.031,4.93,4.93,0,0,0-3.048-.6c-1.441.185-2.974,1.589-4.031,3.231a5.965,5.965,0,0,0-7.9-2.685,6.9,6.9,0,0,0-2.926-1.4A3.224,3.224,0,0,1,19.617,8.022ZM4,20V18.166a3.1,3.1,0,0,1,2.612-3.142A3.178,3.178,0,0,1,7,15a2.958,2.958,0,0,1,2.27,1.064,1,1,0,0,0,1.755-.552,5,5,0,0,1,8.55-3,1,1,0,0,0,1.259.139,3.977,3.977,0,0,1,5.89,1.9,3.9,3.9,0,0,1-.014,2.924,1,1,0,0,0,1.77.911,3.005,3.005,0,0,1,3.333-1.282h0a2.938,2.938,0,0,1,2.1,2.15A3.008,3.008,0,0,1,31,23H7A3,3,0,0,1,4,20Zm9,26a1,1,0,0,1-1-1V25H31a4.964,4.964,0,0,0,4.577-3H52V45a1,1,0,0,1-1,1H44V34c0-3.157-7.543-4-12-4s-12,.843-12,4V46ZM32,60c-6.044,0-9.727-1.329-10-2V54.378C24.547,55.61,28.979,56,32,56s7.453-.39,10-1.622v3.589C41.7,58.682,38.02,60,32,60Zm26-5a2,2,0,1,1,2-2A2,2,0,0,1,58,55Z"
          style="fill:#1a6fb0"/>
    </g>
  </g>
</svg>