<?xml version="1.0" encoding="us-ascii" standalone="no"?><svg xmlns="http://www.w3.org/2000/svg" xmlns:xlink="http://www.w3.org/1999/xlink" contentStyleType="text/css" height="1330px" preserveAspectRatio="none" style="width:1430px;height:1330px;background:#FFFFFF;" version="1.1" viewBox="0 0 1430 1330" width="1430px" zoomAndPan="magnify"><defs/><g><!--cluster ch--><g id="cluster_ch"><path d="M8.5,6 L26.5,6 A3.75,3.75 0 0 1 29,8.5 L36,29.6094 L1420.5,29.6094 A2.5,2.5 0 0 1 1423,32.1094 L1423,1320.5 A2.5,2.5 0 0 1 1420.5,1323 L8.5,1323 A2.5,2.5 0 0 1 6,1320.5 L6,8.5 A2.5,2.5 0 0 1 8.5,6 " fill="none" style="stroke:#000000;stroke-width:1.5;"/><line style="stroke:#000000;stroke-width:1.5;" x1="6" x2="36" y1="29.6094" y2="29.6094"/><text fill="#000000" font-family="sans-serif" font-size="14" font-weight="bold" lengthAdjust="spacing" textLength="17" x="10" y="22.5332">ch</text></g><!--cluster sealedconcept--><g id="cluster_sealedconcept"><path d="M32.5,682 L137.5,682 A3.75,3.75 0 0 1 140,684.5 L147,705.6094 L1396.5,705.6094 A2.5,2.5 0 0 1 1399,708.1094 L1399,1296.5 A2.5,2.5 0 0 1 1396.5,1299 L32.5,1299 A2.5,2.5 0 0 1 30,1296.5 L30,684.5 A2.5,2.5 0 0 1 32.5,682 " fill="none" style="stroke:#000000;stroke-width:1.5;"/><line style="stroke:#000000;stroke-width:1.5;" x1="30" x2="147" y1="705.6094" y2="705.6094"/><text fill="#000000" font-family="sans-serif" font-size="14" font-weight="bold" lengthAdjust="spacing" textLength="104" x="34" y="698.5332">sealedconcept</text></g><!--class RequestHandler--><g id="elem_RequestHandler"><rect codeLine="39" fill="#F1F1F1" height="250.7969" id="RequestHandler" rx="2.5" ry="2.5" style="stroke:#181818;stroke-width:0.5;" width="267" x="856.5" y="288.5"/><ellipse cx="934.75" cy="309.8516" fill="#ADD1B2" rx="11" ry="11" style="stroke:#181818;stroke-width:1.0;"/><path d="M937.5156,305.7266 Q937.6719,305.5078 937.8594,305.3984 Q938.0469,305.2891 938.2656,305.2891 Q938.6406,305.2891 938.875,305.5547 Q939.1094,305.8047 939.1094,306.4141 L939.1094,307.8672 Q939.1094,308.4766 938.875,308.7422 Q938.6406,309.0078 938.2656,309.0078 Q937.9219,309.0078 937.7188,308.8047 Q937.5156,308.6172 937.4063,308.1016 Q937.3594,307.7422 937.1719,307.5547 Q936.8438,307.1797 936.2344,306.9609 Q935.625,306.7422 935,306.7422 Q934.2344,306.7422 933.5938,307.0703 Q932.9688,307.3984 932.4688,308.1484 Q931.9844,308.8984 931.9844,309.9297 L931.9844,311.0234 Q931.9844,312.2578 932.875,313.0859 Q933.7656,313.8984 935.3594,313.8984 Q936.2969,313.8984 936.9531,313.6484 Q937.3438,313.4922 937.7656,313.0547 Q938.0313,312.7891 938.1719,312.7109 Q938.3281,312.6328 938.5313,312.6328 Q938.8594,312.6328 939.1094,312.8984 Q939.375,313.1484 939.375,313.4922 Q939.375,313.8359 939.0313,314.2422 Q938.5313,314.8203 937.7344,315.1484 Q936.6563,315.6016 935.3594,315.6016 Q933.8438,315.6016 932.6406,314.9766 Q931.6563,314.4766 930.9688,313.4141 Q930.2813,312.3359 930.2813,311.0547 L930.2813,309.8984 Q930.2813,308.5703 930.8906,307.4297 Q931.5156,306.2734 932.6094,305.6641 Q933.7031,305.0391 934.9375,305.0391 Q935.6719,305.0391 936.3125,305.2109 Q936.9688,305.3672 937.5156,305.7266 Z " fill="#000000"/><text fill="#000000" font-family="sans-serif" font-size="12" font-style="italic" lengthAdjust="spacing" textLength="71" x="970.75" y="305.957">&#171;case class&#187;</text><text fill="#000000" font-family="sans-serif" font-size="14" lengthAdjust="spacing" textLength="102" x="955.25" y="323.127">RequestHandler</text><line style="stroke:#181818;stroke-width:0.5;" x1="857.5" x2="1122.5" y1="331.2031" y2="331.2031"/><rect fill="#F24D5C" height="6" style="stroke:#C82930;stroke-width:1.0;" width="6" x="864.5" y="342.5078"/><text fill="#000000" font-family="sans-serif" font-size="14" lengthAdjust="spacing" textLength="241" x="876.5" y="349.7363">RequestHandler(req: String, page: Int)</text><line style="stroke:#181818;stroke-width:1.0;" x1="857.5" x2="1122.5" y1="356.8125" y2="356.8125"/><ellipse cx="867.5" cy="371.1172" fill="none" rx="3" ry="3" style="stroke:#038048;stroke-width:1.0;"/><text fill="#000000" font-family="sans-serif" font-size="14" lengthAdjust="spacing" text-decoration="underline" textLength="93" x="876.5" y="375.3457">baseUrl: String</text><ellipse cx="867.5" cy="388.7266" fill="none" rx="3" ry="3" style="stroke:#038048;stroke-width:1.0;"/><text fill="#000000" font-family="sans-serif" font-size="14" lengthAdjust="spacing" text-decoration="underline" textLength="72" x="876.5" y="392.9551">studPlanUrl</text><ellipse cx="867.5" cy="406.3359" fill="none" rx="3" ry="3" style="stroke:#038048;stroke-width:1.0;"/><text fill="#000000" font-family="sans-serif" font-size="14" lengthAdjust="spacing" text-decoration="underline" textLength="60" x="876.5" y="410.5645">courseUrl</text><line style="stroke:#181818;stroke-width:1.0;" x1="857.5" x2="1122.5" y1="417.6406" y2="417.6406"/><rect fill="#F24D5C" height="6" style="stroke:#C82930;stroke-width:1.0;" width="6" x="864.5" y="428.9453"/><text fill="#000000" font-family="sans-serif" font-size="14" lengthAdjust="spacing" textLength="164" x="876.5" y="436.1738">request(url: String): String</text><ellipse cx="867.5" cy="449.5547" fill="#84BE84" rx="3" ry="3" style="stroke:#038048;stroke-width:1.0;"/><text fill="#000000" font-family="sans-serif" font-size="14" lengthAdjust="spacing" textLength="85" x="876.5" y="453.7832">apply(): Resp</text><ellipse cx="867.5" cy="467.1641" fill="#84BE84" rx="3" ry="3" style="stroke:#038048;stroke-width:1.0;"/><text fill="#000000" font-family="sans-serif" font-size="14" lengthAdjust="spacing" textLength="228" x="876.5" y="471.3926">next(nextPage: Int): RequestHandler</text><line style="stroke:#181818;stroke-width:1.0;" x1="857.5" x2="1122.5" y1="478.4688" y2="478.4688"/><ellipse cx="867.5" cy="492.7734" fill="#84BE84" rx="3" ry="3" style="stroke:#038048;stroke-width:1.0;"/><text fill="#000000" font-family="sans-serif" font-size="14" lengthAdjust="spacing" text-decoration="underline" textLength="140" x="876.5" y="497.002">get(): RequestHandler</text><ellipse cx="867.5" cy="510.3828" fill="#84BE84" rx="3" ry="3" style="stroke:#038048;stroke-width:1.0;"/><text fill="#000000" font-family="sans-serif" font-size="14" lengthAdjust="spacing" text-decoration="underline" textLength="198" x="876.5" y="514.6113">course(id:Int): RequestHandler)</text><ellipse cx="867.5" cy="527.9922" fill="#84BE84" rx="3" ry="3" style="stroke:#038048;stroke-width:1.0;"/><text fill="#000000" font-family="sans-serif" font-size="14" lengthAdjust="spacing" text-decoration="underline" textLength="212" x="876.5" y="532.2207">studyPlan(id:Int): RequestHandler</text></g><!--class Response--><g id="elem_Response"><rect codeLine="54" fill="#F1F1F1" height="137.1406" id="Response" rx="2.5" ry="2.5" style="stroke:#181818;stroke-width:0.5;" width="248" x="1159" y="345.5"/><ellipse cx="1245.25" cy="366.8516" fill="#ADD1B2" rx="11" ry="11" style="stroke:#181818;stroke-width:1.0;"/><path d="M1248.0156,362.7266 Q1248.1719,362.5078 1248.3594,362.3984 Q1248.5469,362.2891 1248.7656,362.2891 Q1249.1406,362.2891 1249.375,362.5547 Q1249.6094,362.8047 1249.6094,363.4141 L1249.6094,364.8672 Q1249.6094,365.4766 1249.375,365.7422 Q1249.1406,366.0078 1248.7656,366.0078 Q1248.4219,366.0078 1248.2188,365.8047 Q1248.0156,365.6172 1247.9063,365.1016 Q1247.8594,364.7422 1247.6719,364.5547 Q1247.3438,364.1797 1246.7344,363.9609 Q1246.125,363.7422 1245.5,363.7422 Q1244.7344,363.7422 1244.0938,364.0703 Q1243.4688,364.3984 1242.9688,365.1484 Q1242.4844,365.8984 1242.4844,366.9297 L1242.4844,368.0234 Q1242.4844,369.2578 1243.375,370.0859 Q1244.2656,370.8984 1245.8594,370.8984 Q1246.7969,370.8984 1247.4531,370.6484 Q1247.8438,370.4922 1248.2656,370.0547 Q1248.5313,369.7891 1248.6719,369.7109 Q1248.8281,369.6328 1249.0313,369.6328 Q1249.3594,369.6328 1249.6094,369.8984 Q1249.875,370.1484 1249.875,370.4922 Q1249.875,370.8359 1249.5313,371.2422 Q1249.0313,371.8203 1248.2344,372.1484 Q1247.1563,372.6016 1245.8594,372.6016 Q1244.3438,372.6016 1243.1406,371.9766 Q1242.1563,371.4766 1241.4688,370.4141 Q1240.7813,369.3359 1240.7813,368.0547 L1240.7813,366.8984 Q1240.7813,365.5703 1241.3906,364.4297 Q1242.0156,363.2734 1243.1094,362.6641 Q1244.2031,362.0391 1245.4375,362.0391 Q1246.1719,362.0391 1246.8125,362.2109 Q1247.4688,362.3672 1248.0156,362.7266 Z " fill="#000000"/><text fill="#000000" font-family="sans-serif" font-size="12" font-style="italic" lengthAdjust="spacing" textLength="71" x="1263.75" y="362.957">&#171;case class&#187;</text><text fill="#000000" font-family="sans-serif" font-size="14" lengthAdjust="spacing" textLength="64" x="1267.25" y="380.127">Response</text><line style="stroke:#181818;stroke-width:0.5;" x1="1160" x2="1406" y1="388.2031" y2="388.2031"/><ellipse cx="1170" cy="402.5078" fill="#84BE84" rx="3" ry="3" style="stroke:#038048;stroke-width:1.0;"/><text fill="#000000" font-family="sans-serif" font-size="14" lengthAdjust="spacing" textLength="222" x="1179" y="406.7363">Response(res: string, val: page:Int)</text><line style="stroke:#181818;stroke-width:1.0;" x1="1160" x2="1406" y1="413.8125" y2="413.8125"/><ellipse cx="1170" cy="428.1172" fill="#84BE84" rx="3" ry="3" style="stroke:#038048;stroke-width:1.0;"/><text fill="#000000" font-family="sans-serif" font-size="14" lengthAdjust="spacing" textLength="136" x="1179" y="432.3457">jsonObj(): JsonObject</text><ellipse cx="1170" cy="445.7266" fill="#84BE84" rx="3" ry="3" style="stroke:#038048;stroke-width:1.0;"/><text fill="#000000" font-family="sans-serif" font-size="14" lengthAdjust="spacing" textLength="120" x="1179" y="449.9551">hasNext(): Boolean</text><line style="stroke:#181818;stroke-width:1.0;" x1="1160" x2="1406" y1="457.0313" y2="457.0313"/><rect fill="none" height="6" style="stroke:#C82930;stroke-width:1.0;" width="6" x="1167" y="468.3359"/><text fill="#000000" font-family="sans-serif" font-size="14" lengthAdjust="spacing" text-decoration="underline" textLength="185" x="1179" y="475.5645">gson: com.google.gson.Gson</text></g><!--class Course--><g id="elem_Course"><rect codeLine="62" fill="#F1F1F1" height="366.0625" id="Course" rx="2.5" ry="2.5" style="stroke:#181818;stroke-width:0.5;" width="528" x="293" y="231"/><ellipse cx="519.25" cy="252.3516" fill="#ADD1B2" rx="11" ry="11" style="stroke:#181818;stroke-width:1.0;"/><path d="M522.0156,248.2266 Q522.1719,248.0078 522.3594,247.8984 Q522.5469,247.7891 522.7656,247.7891 Q523.1406,247.7891 523.375,248.0547 Q523.6094,248.3047 523.6094,248.9141 L523.6094,250.3672 Q523.6094,250.9766 523.375,251.2422 Q523.1406,251.5078 522.7656,251.5078 Q522.4219,251.5078 522.2188,251.3047 Q522.0156,251.1172 521.9063,250.6016 Q521.8594,250.2422 521.6719,250.0547 Q521.3438,249.6797 520.7344,249.4609 Q520.125,249.2422 519.5,249.2422 Q518.7344,249.2422 518.0938,249.5703 Q517.4688,249.8984 516.9688,250.6484 Q516.4844,251.3984 516.4844,252.4297 L516.4844,253.5234 Q516.4844,254.7578 517.375,255.5859 Q518.2656,256.3984 519.8594,256.3984 Q520.7969,256.3984 521.4531,256.1484 Q521.8438,255.9922 522.2656,255.5547 Q522.5313,255.2891 522.6719,255.2109 Q522.8281,255.1328 523.0313,255.1328 Q523.3594,255.1328 523.6094,255.3984 Q523.875,255.6484 523.875,255.9922 Q523.875,256.3359 523.5313,256.7422 Q523.0313,257.3203 522.2344,257.6484 Q521.1563,258.1016 519.8594,258.1016 Q518.3438,258.1016 517.1406,257.4766 Q516.1563,256.9766 515.4688,255.9141 Q514.7813,254.8359 514.7813,253.5547 L514.7813,252.3984 Q514.7813,251.0703 515.3906,249.9297 Q516.0156,248.7734 517.1094,248.1641 Q518.2031,247.5391 519.4375,247.5391 Q520.1719,247.5391 520.8125,247.7109 Q521.4688,247.8672 522.0156,248.2266 Z " fill="#000000"/><text fill="#000000" font-family="sans-serif" font-size="12" font-style="italic" lengthAdjust="spacing" textLength="71" x="537.75" y="248.457">&#171;case class&#187;</text><text fill="#000000" font-family="sans-serif" font-size="14" lengthAdjust="spacing" textLength="46" x="550.25" y="265.627">Course</text><line style="stroke:#181818;stroke-width:0.5;" x1="294" x2="820" y1="273.7031" y2="273.7031"/><ellipse cx="304" cy="288.0078" fill="#84BE84" rx="3" ry="3" style="stroke:#038048;stroke-width:1.0;"/><text fill="#000000" font-family="sans-serif" font-size="14" lengthAdjust="spacing" textLength="452" x="313" y="292.2363">Course(id: String, year: Int, title:String, spType: SPType, spYear: String,</text><text fill="#000000" font-family="sans-serif" font-size="14" lengthAdjust="spacing" textLength="473" x="313" y="309.8457">semester: Semester, objective: String, description: String, language: String,</text><text fill="#000000" font-family="sans-serif" font-size="14" lengthAdjust="spacing" textLength="502" x="313" y="327.4551">faculty: String, evalMode: String, hoursNb: CourseHours, documentation: String,</text><text fill="#000000" font-family="sans-serif" font-size="14" lengthAdjust="spacing" textLength="467" x="313" y="345.0645">authors: Vector&lt;String&gt;, studyPlan: Map&lt;String, (Int, Int)&gt;, various: String,</text><text fill="#000000" font-family="sans-serif" font-size="14" lengthAdjust="spacing" textLength="114" x="313" y="362.6738">comments: String)</text><line style="stroke:#181818;stroke-width:1.0;" x1="294" x2="820" y1="369.75" y2="369.75"/><text fill="#000000" font-family="sans-serif" font-size="14" lengthAdjust="spacing" textLength="203" x="313" y="388.2832">(// other field not in constructor:)</text><ellipse cx="304" cy="401.6641" fill="none" rx="3" ry="3" style="stroke:#038048;stroke-width:1.0;"/><text fill="#000000" font-family="sans-serif" font-size="14" lengthAdjust="spacing" textLength="143" x="313" y="405.8926">format: Option&lt;String&gt;</text><ellipse cx="304" cy="419.2734" fill="none" rx="3" ry="3" style="stroke:#038048;stroke-width:1.0;"/><text fill="#000000" font-family="sans-serif" font-size="14" lengthAdjust="spacing" textLength="190" x="313" y="423.502">preRequisites: Option&lt;String&gt;</text><ellipse cx="304" cy="436.8828" fill="none" rx="3" ry="3" style="stroke:#038048;stroke-width:1.0;"/><text fill="#000000" font-family="sans-serif" font-size="14" lengthAdjust="spacing" textLength="163" x="313" y="441.1113">usefulFor: Option&lt;String&gt;</text><line style="stroke:#181818;stroke-width:1.0;" x1="294" x2="820" y1="448.1875" y2="448.1875"/><ellipse cx="304" cy="462.4922" fill="#84BE84" rx="3" ry="3" style="stroke:#038048;stroke-width:1.0;"/><text fill="#000000" font-family="sans-serif" font-size="14" lengthAdjust="spacing" textLength="227" x="313" y="466.7207">get(id: String, year: Int) : JsonObject</text><rect fill="#F24D5C" height="6" style="stroke:#C82930;stroke-width:1.0;" width="6" x="301" y="477.1016"/><text fill="#000000" font-family="sans-serif" font-size="14" lengthAdjust="spacing" textLength="357" x="313" y="484.3301">simpleResolveSealedConcept&lt;T, U &gt;: T&gt;(jo: JsonObject,</text><text fill="#000000" font-family="sans-serif" font-size="14" lengthAdjust="spacing" textLength="215" x="313" y="501.9395">sco: SealedConceptObject&lt;T&gt;): U</text><rect fill="#F24D5C" height="6" style="stroke:#C82930;stroke-width:1.0;" width="6" x="301" y="512.3203"/><text fill="#000000" font-family="sans-serif" font-size="14" lengthAdjust="spacing" textLength="139" x="313" y="519.5488">resolveCourseHours()</text><rect fill="#F24D5C" height="6" style="stroke:#C82930;stroke-width:1.0;" width="6" x="301" y="529.9297"/><text fill="#000000" font-family="sans-serif" font-size="14" lengthAdjust="spacing" textLength="105" x="313" y="537.1582">resolveAuthors()</text><rect fill="#F24D5C" height="6" style="stroke:#C82930;stroke-width:1.0;" width="6" x="301" y="547.5391"/><text fill="#000000" font-family="sans-serif" font-size="14" lengthAdjust="spacing" textLength="120" x="313" y="554.7676">resolveStudyPlan()</text><text fill="#000000" font-family="sans-serif" font-size="14" lengthAdjust="spacing" textLength="12" x="313" y="572.377">...</text><ellipse cx="304" cy="585.7578" fill="#84BE84" rx="3" ry="3" style="stroke:#038048;stroke-width:1.0;"/><text fill="#000000" font-family="sans-serif" font-size="14" lengthAdjust="spacing" textLength="462" x="313" y="589.9863">factory(id: String, year: Int): Course // calls get() and works on JsonObject</text></g><!--class StudyPlan--><g id="elem_StudyPlan"><rect codeLine="85" fill="#F1F1F1" height="129.1406" id="StudyPlan" rx="2.5" ry="2.5" style="stroke:#181818;stroke-width:0.5;" width="215" x="449.5" y="42"/><ellipse cx="519.25" cy="63.3516" fill="#ADD1B2" rx="11" ry="11" style="stroke:#181818;stroke-width:1.0;"/><path d="M522.0156,59.2266 Q522.1719,59.0078 522.3594,58.8984 Q522.5469,58.7891 522.7656,58.7891 Q523.1406,58.7891 523.375,59.0547 Q523.6094,59.3047 523.6094,59.9141 L523.6094,61.3672 Q523.6094,61.9766 523.375,62.2422 Q523.1406,62.5078 522.7656,62.5078 Q522.4219,62.5078 522.2188,62.3047 Q522.0156,62.1172 521.9063,61.6016 Q521.8594,61.2422 521.6719,61.0547 Q521.3438,60.6797 520.7344,60.4609 Q520.125,60.2422 519.5,60.2422 Q518.7344,60.2422 518.0938,60.5703 Q517.4688,60.8984 516.9688,61.6484 Q516.4844,62.3984 516.4844,63.4297 L516.4844,64.5234 Q516.4844,65.7578 517.375,66.5859 Q518.2656,67.3984 519.8594,67.3984 Q520.7969,67.3984 521.4531,67.1484 Q521.8438,66.9922 522.2656,66.5547 Q522.5313,66.2891 522.6719,66.2109 Q522.8281,66.1328 523.0313,66.1328 Q523.3594,66.1328 523.6094,66.3984 Q523.875,66.6484 523.875,66.9922 Q523.875,67.3359 523.5313,67.7422 Q523.0313,68.3203 522.2344,68.6484 Q521.1563,69.1016 519.8594,69.1016 Q518.3438,69.1016 517.1406,68.4766 Q516.1563,67.9766 515.4688,66.9141 Q514.7813,65.8359 514.7813,64.5547 L514.7813,63.3984 Q514.7813,62.0703 515.3906,60.9297 Q516.0156,59.7734 517.1094,59.1641 Q518.2031,58.5391 519.4375,58.5391 Q520.1719,58.5391 520.8125,58.7109 Q521.4688,58.8672 522.0156,59.2266 Z " fill="#000000"/><text fill="#000000" font-family="sans-serif" font-size="12" font-style="italic" lengthAdjust="spacing" textLength="71" x="537.75" y="59.457">&#171;case class&#187;</text><text fill="#000000" font-family="sans-serif" font-size="14" lengthAdjust="spacing" textLength="64" x="541.25" y="76.627">StudyPlan</text><line style="stroke:#181818;stroke-width:0.5;" x1="450.5" x2="663.5" y1="84.7031" y2="84.7031"/><ellipse cx="460.5" cy="99.0078" fill="#84BE84" rx="3" ry="3" style="stroke:#038048;stroke-width:1.0;"/><text fill="#000000" font-family="sans-serif" font-size="14" lengthAdjust="spacing" textLength="189" x="469.5" y="103.2363">StudyPlan(id: String, year: Int)</text><line style="stroke:#181818;stroke-width:1.0;" x1="450.5" x2="663.5" y1="110.3125" y2="110.3125"/><ellipse cx="460.5" cy="124.6172" fill="none" rx="3" ry="3" style="stroke:#038048;stroke-width:1.0;"/><text fill="#000000" font-family="sans-serif" font-size="14" lengthAdjust="spacing" textLength="86" x="469.5" y="128.8457">faculty: String</text><ellipse cx="460.5" cy="142.2266" fill="none" rx="3" ry="3" style="stroke:#038048;stroke-width:1.0;"/><text fill="#000000" font-family="sans-serif" font-size="14" lengthAdjust="spacing" textLength="90" x="469.5" y="146.4551">section: String</text><ellipse cx="460.5" cy="159.8359" fill="none" rx="3" ry="3" style="stroke:#038048;stroke-width:1.0;"/><text fill="#000000" font-family="sans-serif" font-size="14" lengthAdjust="spacing" textLength="153" x="469.5" y="164.0645">courses: Vector[Course]</text></g><!--class Aug--><g id="elem_Aug"><rect codeLine="4" fill="#F1F1F1" height="58.7031" id="Aug" rx="2.5" ry="2.5" style="stroke:#181818;stroke-width:0.5;" width="105" x="157.5" y="1105"/><ellipse cx="172.5" cy="1126.3516" fill="#FF0000" rx="11" ry="11" style="stroke:#181818;stroke-width:1.0;"/><path d="M177.875,1126.3203 Q177.875,1128.5859 176.4375,1130.1016 Q175,1131.6016 173.1094,1131.6016 Q171.4063,1131.6016 170.0313,1130.3516 Q168.3438,1128.7891 168.3438,1126.3203 Q168.3438,1123.8516 170.0313,1122.2891 Q171.4063,1121.0391 173.1094,1121.0391 Q175,1121.0391 176.4375,1122.5391 Q177.875,1124.0391 177.875,1126.3203 Z M176.1719,1126.3203 Q176.1719,1124.7734 175.2344,1123.7578 Q174.2969,1122.7422 173.1094,1122.7422 Q171.9219,1122.7422 170.9844,1123.7578 Q170.0469,1124.7734 170.0469,1126.3203 Q170.0469,1127.8672 170.9844,1128.8828 Q171.9219,1129.8984 173.1094,1129.8984 Q174.2969,1129.8984 175.2344,1128.8828 Q176.1719,1127.8672 176.1719,1126.3203 Z " fill="#000000"/><text fill="#000000" font-family="sans-serif" font-size="12" font-style="italic" lengthAdjust="spacing" textLength="77" x="184.5" y="1122.457">&#171;case object&#187;</text><text fill="#000000" font-family="sans-serif" font-size="14" lengthAdjust="spacing" textLength="25" x="210.5" y="1139.627">Aug</text><line style="stroke:#181818;stroke-width:0.5;" x1="158.5" x2="261.5" y1="1147.7031" y2="1147.7031"/><line style="stroke:#181818;stroke-width:0.5;" x1="158.5" x2="261.5" y1="1155.7031" y2="1155.7031"/></g><!--class Bachelor--><g id="elem_Bachelor"><rect codeLine="5" fill="#F1F1F1" height="58.7031" id="Bachelor" rx="2.5" ry="2.5" style="stroke:#181818;stroke-width:0.5;" width="105" x="997.5" y="1105"/><ellipse cx="1012.5" cy="1126.3516" fill="#FF0000" rx="11" ry="11" style="stroke:#181818;stroke-width:1.0;"/><path d="M1017.875,1126.3203 Q1017.875,1128.5859 1016.4375,1130.1016 Q1015,1131.6016 1013.1094,1131.6016 Q1011.4063,1131.6016 1010.0313,1130.3516 Q1008.3438,1128.7891 1008.3438,1126.3203 Q1008.3438,1123.8516 1010.0313,1122.2891 Q1011.4063,1121.0391 1013.1094,1121.0391 Q1015,1121.0391 1016.4375,1122.5391 Q1017.875,1124.0391 1017.875,1126.3203 Z M1016.1719,1126.3203 Q1016.1719,1124.7734 1015.2344,1123.7578 Q1014.2969,1122.7422 1013.1094,1122.7422 Q1011.9219,1122.7422 1010.9844,1123.7578 Q1010.0469,1124.7734 1010.0469,1126.3203 Q1010.0469,1127.8672 1010.9844,1128.8828 Q1011.9219,1129.8984 1013.1094,1129.8984 Q1014.2969,1129.8984 1015.2344,1128.8828 Q1016.1719,1127.8672 1016.1719,1126.3203 Z " fill="#000000"/><text fill="#000000" font-family="sans-serif" font-size="12" font-style="italic" lengthAdjust="spacing" textLength="77" x="1024.5" y="1122.457">&#171;case object&#187;</text><text fill="#000000" font-family="sans-serif" font-size="14" lengthAdjust="spacing" textLength="56" x="1035" y="1139.627">Bachelor</text><line style="stroke:#181818;stroke-width:0.5;" x1="998.5" x2="1101.5" y1="1147.7031" y2="1147.7031"/><line style="stroke:#181818;stroke-width:0.5;" x1="998.5" x2="1101.5" y1="1155.7031" y2="1155.7031"/></g><!--class CourseActivity--><g id="elem_CourseActivity"><rect codeLine="6" fill="#F1F1F1" height="58.7031" id="CourseActivity" rx="2.5" ry="2.5" style="stroke:#181818;stroke-width:0.5;" width="121" x="639.5" y="968.5"/><ellipse cx="654.5" cy="989.8516" fill="#B4A7E5" rx="11" ry="11" style="stroke:#181818;stroke-width:1.0;"/><path d="M655.4531,986.4922 L655.4531,993.1484 L657.1719,993.1484 Q657.7813,993.1484 658.0469,993.3828 Q658.3125,993.6172 658.3125,994.0078 Q658.3125,994.3828 658.0469,994.6172 Q657.7813,994.8516 657.1719,994.8516 L652.0313,994.8516 Q651.4219,994.8516 651.1563,994.6172 Q650.8906,994.3828 650.8906,993.9922 Q650.8906,993.6172 651.1563,993.3828 Q651.4219,993.1484 652.0313,993.1484 L653.75,993.1484 L653.75,986.4922 L652.0313,986.4922 Q651.4219,986.4922 651.1563,986.2578 Q650.8906,986.0234 650.8906,985.6328 Q650.8906,985.2578 651.1563,985.0234 Q651.4219,984.7891 652.0313,984.7891 L657.1719,984.7891 Q657.7813,984.7891 658.0469,985.0234 Q658.3125,985.2578 658.3125,985.6328 Q658.3125,986.0234 658.0469,986.2578 Q657.7813,986.4922 657.1719,986.4922 L655.4531,986.4922 Z " fill="#000000"/><text fill="#000000" font-family="sans-serif" font-size="12" font-style="italic" lengthAdjust="spacing" textLength="74" x="676" y="985.957">&#171;sealed trait&#187;</text><text fill="#000000" font-family="sans-serif" font-size="14" font-style="italic" lengthAdjust="spacing" textLength="89" x="668.5" y="1003.127">CourseActivity</text><line style="stroke:#181818;stroke-width:0.5;" x1="640.5" x2="759.5" y1="1011.2031" y2="1011.2031"/><line style="stroke:#181818;stroke-width:0.5;" x1="640.5" x2="759.5" y1="1019.2031" y2="1019.2031"/></g><!--class CourseHours--><g id="elem_CourseHours"><rect codeLine="7" fill="#F1F1F1" height="58.7031" id="CourseHours" rx="2.5" ry="2.5" style="stroke:#181818;stroke-width:0.5;" width="115" x="1136.5" y="968.5"/><ellipse cx="1151.5" cy="989.8516" fill="#ADD1B2" rx="11" ry="11" style="stroke:#181818;stroke-width:1.0;"/><path d="M1154.2656,985.7266 Q1154.4219,985.5078 1154.6094,985.3984 Q1154.7969,985.2891 1155.0156,985.2891 Q1155.3906,985.2891 1155.625,985.5547 Q1155.8594,985.8047 1155.8594,986.4141 L1155.8594,987.8672 Q1155.8594,988.4766 1155.625,988.7422 Q1155.3906,989.0078 1155.0156,989.0078 Q1154.6719,989.0078 1154.4688,988.8047 Q1154.2656,988.6172 1154.1563,988.1016 Q1154.1094,987.7422 1153.9219,987.5547 Q1153.5938,987.1797 1152.9844,986.9609 Q1152.375,986.7422 1151.75,986.7422 Q1150.9844,986.7422 1150.3438,987.0703 Q1149.7188,987.3984 1149.2188,988.1484 Q1148.7344,988.8984 1148.7344,989.9297 L1148.7344,991.0234 Q1148.7344,992.2578 1149.625,993.0859 Q1150.5156,993.8984 1152.1094,993.8984 Q1153.0469,993.8984 1153.7031,993.6484 Q1154.0938,993.4922 1154.5156,993.0547 Q1154.7813,992.7891 1154.9219,992.7109 Q1155.0781,992.6328 1155.2813,992.6328 Q1155.6094,992.6328 1155.8594,992.8984 Q1156.125,993.1484 1156.125,993.4922 Q1156.125,993.8359 1155.7813,994.2422 Q1155.2813,994.8203 1154.4844,995.1484 Q1153.4063,995.6016 1152.1094,995.6016 Q1150.5938,995.6016 1149.3906,994.9766 Q1148.4063,994.4766 1147.7188,993.4141 Q1147.0313,992.3359 1147.0313,991.0547 L1147.0313,989.8984 Q1147.0313,988.5703 1147.6406,987.4297 Q1148.2656,986.2734 1149.3594,985.6641 Q1150.4531,985.0391 1151.6875,985.0391 Q1152.4219,985.0391 1153.0625,985.2109 Q1153.7188,985.3672 1154.2656,985.7266 Z " fill="#000000"/><text fill="#000000" font-family="sans-serif" font-size="12" font-style="italic" lengthAdjust="spacing" textLength="71" x="1171.5" y="985.957">&#171;case class&#187;</text><text fill="#000000" font-family="sans-serif" font-size="14" lengthAdjust="spacing" textLength="83" x="1165.5" y="1003.127">CourseHours</text><line style="stroke:#181818;stroke-width:0.5;" x1="1137.5" x2="1250.5" y1="1011.2031" y2="1011.2031"/><line style="stroke:#181818;stroke-width:0.5;" x1="1137.5" x2="1250.5" y1="1019.2031" y2="1019.2031"/></g><!--class ExaSession--><g id="elem_ExaSession"><rect codeLine="8" fill="#F1F1F1" height="58.7031" id="ExaSession" rx="2.5" ry="2.5" style="stroke:#181818;stroke-width:0.5;" width="105" x="297.5" y="968.5"/><ellipse cx="312.5" cy="989.8516" fill="#B4A7E5" rx="11" ry="11" style="stroke:#181818;stroke-width:1.0;"/><path d="M313.4531,986.4922 L313.4531,993.1484 L315.1719,993.1484 Q315.7813,993.1484 316.0469,993.3828 Q316.3125,993.6172 316.3125,994.0078 Q316.3125,994.3828 316.0469,994.6172 Q315.7813,994.8516 315.1719,994.8516 L310.0313,994.8516 Q309.4219,994.8516 309.1563,994.6172 Q308.8906,994.3828 308.8906,993.9922 Q308.8906,993.6172 309.1563,993.3828 Q309.4219,993.1484 310.0313,993.1484 L311.75,993.1484 L311.75,986.4922 L310.0313,986.4922 Q309.4219,986.4922 309.1563,986.2578 Q308.8906,986.0234 308.8906,985.6328 Q308.8906,985.2578 309.1563,985.0234 Q309.4219,984.7891 310.0313,984.7891 L315.1719,984.7891 Q315.7813,984.7891 316.0469,985.0234 Q316.3125,985.2578 316.3125,985.6328 Q316.3125,986.0234 316.0469,986.2578 Q315.7813,986.4922 315.1719,986.4922 L313.4531,986.4922 Z " fill="#000000"/><text fill="#000000" font-family="sans-serif" font-size="12" font-style="italic" lengthAdjust="spacing" textLength="74" x="326" y="985.957">&#171;sealed trait&#187;</text><text fill="#000000" font-family="sans-serif" font-size="14" font-style="italic" lengthAdjust="spacing" textLength="73" x="326.5" y="1003.127">ExaSession</text><line style="stroke:#181818;stroke-width:0.5;" x1="298.5" x2="401.5" y1="1011.2031" y2="1011.2031"/><line style="stroke:#181818;stroke-width:0.5;" x1="298.5" x2="401.5" y1="1019.2031" y2="1019.2031"/></g><!--class Exercices--><g id="elem_Exercices"><rect codeLine="10" fill="#F1F1F1" height="58.7031" id="Exercices" rx="2.5" ry="2.5" style="stroke:#181818;stroke-width:0.5;" width="105" x="577.5" y="1105"/><ellipse cx="592.5" cy="1126.3516" fill="#FF0000" rx="11" ry="11" style="stroke:#181818;stroke-width:1.0;"/><path d="M597.875,1126.3203 Q597.875,1128.5859 596.4375,1130.1016 Q595,1131.6016 593.1094,1131.6016 Q591.4063,1131.6016 590.0313,1130.3516 Q588.3438,1128.7891 588.3438,1126.3203 Q588.3438,1123.8516 590.0313,1122.2891 Q591.4063,1121.0391 593.1094,1121.0391 Q595,1121.0391 596.4375,1122.5391 Q597.875,1124.0391 597.875,1126.3203 Z M596.1719,1126.3203 Q596.1719,1124.7734 595.2344,1123.7578 Q594.2969,1122.7422 593.1094,1122.7422 Q591.9219,1122.7422 590.9844,1123.7578 Q590.0469,1124.7734 590.0469,1126.3203 Q590.0469,1127.8672 590.9844,1128.8828 Q591.9219,1129.8984 593.1094,1129.8984 Q594.2969,1129.8984 595.2344,1128.8828 Q596.1719,1127.8672 596.1719,1126.3203 Z " fill="#000000"/><text fill="#000000" font-family="sans-serif" font-size="12" font-style="italic" lengthAdjust="spacing" textLength="77" x="604.5" y="1122.457">&#171;case object&#187;</text><text fill="#000000" font-family="sans-serif" font-size="14" lengthAdjust="spacing" textLength="60" x="613" y="1139.627">Exercices</text><line style="stroke:#181818;stroke-width:0.5;" x1="578.5" x2="681.5" y1="1147.7031" y2="1147.7031"/><line style="stroke:#181818;stroke-width:0.5;" x1="578.5" x2="681.5" y1="1155.7031" y2="1155.7031"/></g><!--class Jan--><g id="elem_Jan"><rect codeLine="12" fill="#F1F1F1" height="58.7031" id="Jan" rx="2.5" ry="2.5" style="stroke:#181818;stroke-width:0.5;" width="105" x="297.5" y="1105"/><ellipse cx="312.5" cy="1126.3516" fill="#FF0000" rx="11" ry="11" style="stroke:#181818;stroke-width:1.0;"/><path d="M317.875,1126.3203 Q317.875,1128.5859 316.4375,1130.1016 Q315,1131.6016 313.1094,1131.6016 Q311.4063,1131.6016 310.0313,1130.3516 Q308.3438,1128.7891 308.3438,1126.3203 Q308.3438,1123.8516 310.0313,1122.2891 Q311.4063,1121.0391 313.1094,1121.0391 Q315,1121.0391 316.4375,1122.5391 Q317.875,1124.0391 317.875,1126.3203 Z M316.1719,1126.3203 Q316.1719,1124.7734 315.2344,1123.7578 Q314.2969,1122.7422 313.1094,1122.7422 Q311.9219,1122.7422 310.9844,1123.7578 Q310.0469,1124.7734 310.0469,1126.3203 Q310.0469,1127.8672 310.9844,1128.8828 Q311.9219,1129.8984 313.1094,1129.8984 Q314.2969,1129.8984 315.2344,1128.8828 Q316.1719,1127.8672 316.1719,1126.3203 Z " fill="#000000"/><text fill="#000000" font-family="sans-serif" font-size="12" font-style="italic" lengthAdjust="spacing" textLength="77" x="324.5" y="1122.457">&#171;case object&#187;</text><text fill="#000000" font-family="sans-serif" font-size="14" lengthAdjust="spacing" textLength="22" x="352" y="1139.627">Jan</text><line style="stroke:#181818;stroke-width:0.5;" x1="298.5" x2="401.5" y1="1147.7031" y2="1147.7031"/><line style="stroke:#181818;stroke-width:0.5;" x1="298.5" x2="401.5" y1="1155.7031" y2="1155.7031"/></g><!--class Jul--><g id="elem_Jul"><rect codeLine="13" fill="#F1F1F1" height="58.7031" id="Jul" rx="2.5" ry="2.5" style="stroke:#181818;stroke-width:0.5;" width="105" x="437.5" y="1105"/><ellipse cx="452.5" cy="1126.3516" fill="#FF0000" rx="11" ry="11" style="stroke:#181818;stroke-width:1.0;"/><path d="M457.875,1126.3203 Q457.875,1128.5859 456.4375,1130.1016 Q455,1131.6016 453.1094,1131.6016 Q451.4063,1131.6016 450.0313,1130.3516 Q448.3438,1128.7891 448.3438,1126.3203 Q448.3438,1123.8516 450.0313,1122.2891 Q451.4063,1121.0391 453.1094,1121.0391 Q455,1121.0391 456.4375,1122.5391 Q457.875,1124.0391 457.875,1126.3203 Z M456.1719,1126.3203 Q456.1719,1124.7734 455.2344,1123.7578 Q454.2969,1122.7422 453.1094,1122.7422 Q451.9219,1122.7422 450.9844,1123.7578 Q450.0469,1124.7734 450.0469,1126.3203 Q450.0469,1127.8672 450.9844,1128.8828 Q451.9219,1129.8984 453.1094,1129.8984 Q454.2969,1129.8984 455.2344,1128.8828 Q456.1719,1127.8672 456.1719,1126.3203 Z " fill="#000000"/><text fill="#000000" font-family="sans-serif" font-size="12" font-style="italic" lengthAdjust="spacing" textLength="77" x="464.5" y="1122.457">&#171;case object&#187;</text><text fill="#000000" font-family="sans-serif" font-size="14" lengthAdjust="spacing" textLength="17" x="494.5" y="1139.627">Jul</text><line style="stroke:#181818;stroke-width:0.5;" x1="438.5" x2="541.5" y1="1147.7031" y2="1147.7031"/><line style="stroke:#181818;stroke-width:0.5;" x1="438.5" x2="541.5" y1="1155.7031" y2="1155.7031"/></g><!--class Lectures--><g id="elem_Lectures"><rect codeLine="15" fill="#F1F1F1" height="58.7031" id="Lectures" rx="2.5" ry="2.5" style="stroke:#181818;stroke-width:0.5;" width="105" x="717.5" y="1105"/><ellipse cx="732.5" cy="1126.3516" fill="#FF0000" rx="11" ry="11" style="stroke:#181818;stroke-width:1.0;"/><path d="M737.875,1126.3203 Q737.875,1128.5859 736.4375,1130.1016 Q735,1131.6016 733.1094,1131.6016 Q731.4063,1131.6016 730.0313,1130.3516 Q728.3438,1128.7891 728.3438,1126.3203 Q728.3438,1123.8516 730.0313,1122.2891 Q731.4063,1121.0391 733.1094,1121.0391 Q735,1121.0391 736.4375,1122.5391 Q737.875,1124.0391 737.875,1126.3203 Z M736.1719,1126.3203 Q736.1719,1124.7734 735.2344,1123.7578 Q734.2969,1122.7422 733.1094,1122.7422 Q731.9219,1122.7422 730.9844,1123.7578 Q730.0469,1124.7734 730.0469,1126.3203 Q730.0469,1127.8672 730.9844,1128.8828 Q731.9219,1129.8984 733.1094,1129.8984 Q734.2969,1129.8984 735.2344,1128.8828 Q736.1719,1127.8672 736.1719,1126.3203 Z " fill="#000000"/><text fill="#000000" font-family="sans-serif" font-size="12" font-style="italic" lengthAdjust="spacing" textLength="77" x="744.5" y="1122.457">&#171;case object&#187;</text><text fill="#000000" font-family="sans-serif" font-size="14" lengthAdjust="spacing" textLength="55" x="755.5" y="1139.627">Lectures</text><line style="stroke:#181818;stroke-width:0.5;" x1="718.5" x2="821.5" y1="1147.7031" y2="1147.7031"/><line style="stroke:#181818;stroke-width:0.5;" x1="718.5" x2="821.5" y1="1155.7031" y2="1155.7031"/></g><!--class Master--><g id="elem_Master"><rect codeLine="16" fill="#F1F1F1" height="58.7031" id="Master" rx="2.5" ry="2.5" style="stroke:#181818;stroke-width:0.5;" width="105" x="1137.5" y="1105"/><ellipse cx="1152.5" cy="1126.3516" fill="#FF0000" rx="11" ry="11" style="stroke:#181818;stroke-width:1.0;"/><path d="M1157.875,1126.3203 Q1157.875,1128.5859 1156.4375,1130.1016 Q1155,1131.6016 1153.1094,1131.6016 Q1151.4063,1131.6016 1150.0313,1130.3516 Q1148.3438,1128.7891 1148.3438,1126.3203 Q1148.3438,1123.8516 1150.0313,1122.2891 Q1151.4063,1121.0391 1153.1094,1121.0391 Q1155,1121.0391 1156.4375,1122.5391 Q1157.875,1124.0391 1157.875,1126.3203 Z M1156.1719,1126.3203 Q1156.1719,1124.7734 1155.2344,1123.7578 Q1154.2969,1122.7422 1153.1094,1122.7422 Q1151.9219,1122.7422 1150.9844,1123.7578 Q1150.0469,1124.7734 1150.0469,1126.3203 Q1150.0469,1127.8672 1150.9844,1128.8828 Q1151.9219,1129.8984 1153.1094,1129.8984 Q1154.2969,1129.8984 1155.2344,1128.8828 Q1156.1719,1127.8672 1156.1719,1126.3203 Z " fill="#000000"/><text fill="#000000" font-family="sans-serif" font-size="12" font-style="italic" lengthAdjust="spacing" textLength="77" x="1164.5" y="1122.457">&#171;case object&#187;</text><text fill="#000000" font-family="sans-serif" font-size="14" lengthAdjust="spacing" textLength="43" x="1181.5" y="1139.627">Master</text><line style="stroke:#181818;stroke-width:0.5;" x1="1138.5" x2="1241.5" y1="1147.7031" y2="1147.7031"/><line style="stroke:#181818;stroke-width:0.5;" x1="1138.5" x2="1241.5" y1="1155.7031" y2="1155.7031"/></g><!--class Phd--><g id="elem_Phd"><rect codeLine="17" fill="#F1F1F1" height="58.7031" id="Phd" rx="2.5" ry="2.5" style="stroke:#181818;stroke-width:0.5;" width="105" x="1277.5" y="1105"/><ellipse cx="1292.5" cy="1126.3516" fill="#FF0000" rx="11" ry="11" style="stroke:#181818;stroke-width:1.0;"/><path d="M1297.875,1126.3203 Q1297.875,1128.5859 1296.4375,1130.1016 Q1295,1131.6016 1293.1094,1131.6016 Q1291.4063,1131.6016 1290.0313,1130.3516 Q1288.3438,1128.7891 1288.3438,1126.3203 Q1288.3438,1123.8516 1290.0313,1122.2891 Q1291.4063,1121.0391 1293.1094,1121.0391 Q1295,1121.0391 1296.4375,1122.5391 Q1297.875,1124.0391 1297.875,1126.3203 Z M1296.1719,1126.3203 Q1296.1719,1124.7734 1295.2344,1123.7578 Q1294.2969,1122.7422 1293.1094,1122.7422 Q1291.9219,1122.7422 1290.9844,1123.7578 Q1290.0469,1124.7734 1290.0469,1126.3203 Q1290.0469,1127.8672 1290.9844,1128.8828 Q1291.9219,1129.8984 1293.1094,1129.8984 Q1294.2969,1129.8984 1295.2344,1128.8828 Q1296.1719,1127.8672 1296.1719,1126.3203 Z " fill="#000000"/><text fill="#000000" font-family="sans-serif" font-size="12" font-style="italic" lengthAdjust="spacing" textLength="77" x="1304.5" y="1122.457">&#171;case object&#187;</text><text fill="#000000" font-family="sans-serif" font-size="14" lengthAdjust="spacing" textLength="25" x="1330.5" y="1139.627">Phd</text><line style="stroke:#181818;stroke-width:0.5;" x1="1278.5" x2="1381.5" y1="1147.7031" y2="1147.7031"/><line style="stroke:#181818;stroke-width:0.5;" x1="1278.5" x2="1381.5" y1="1155.7031" y2="1155.7031"/></g><!--class Practice--><g id="elem_Practice"><rect codeLine="18" fill="#F1F1F1" height="58.7031" id="Practice" rx="2.5" ry="2.5" style="stroke:#181818;stroke-width:0.5;" width="105" x="857.5" y="1105"/><ellipse cx="872.5" cy="1126.3516" fill="#FF0000" rx="11" ry="11" style="stroke:#181818;stroke-width:1.0;"/><path d="M877.875,1126.3203 Q877.875,1128.5859 876.4375,1130.1016 Q875,1131.6016 873.1094,1131.6016 Q871.4063,1131.6016 870.0313,1130.3516 Q868.3438,1128.7891 868.3438,1126.3203 Q868.3438,1123.8516 870.0313,1122.2891 Q871.4063,1121.0391 873.1094,1121.0391 Q875,1121.0391 876.4375,1122.5391 Q877.875,1124.0391 877.875,1126.3203 Z M876.1719,1126.3203 Q876.1719,1124.7734 875.2344,1123.7578 Q874.2969,1122.7422 873.1094,1122.7422 Q871.9219,1122.7422 870.9844,1123.7578 Q870.0469,1124.7734 870.0469,1126.3203 Q870.0469,1127.8672 870.9844,1128.8828 Q871.9219,1129.8984 873.1094,1129.8984 Q874.2969,1129.8984 875.2344,1128.8828 Q876.1719,1127.8672 876.1719,1126.3203 Z " fill="#000000"/><text fill="#000000" font-family="sans-serif" font-size="12" font-style="italic" lengthAdjust="spacing" textLength="77" x="884.5" y="1122.457">&#171;case object&#187;</text><text fill="#000000" font-family="sans-serif" font-size="14" lengthAdjust="spacing" textLength="51" x="897.5" y="1139.627">Practice</text><line style="stroke:#181818;stroke-width:0.5;" x1="858.5" x2="961.5" y1="1147.7031" y2="1147.7031"/><line style="stroke:#181818;stroke-width:0.5;" x1="858.5" x2="961.5" y1="1155.7031" y2="1155.7031"/></g><!--class SPType--><g id="elem_SPType"><rect codeLine="19" fill="#F1F1F1" height="58.7031" id="SPType" rx="2.5" ry="2.5" style="stroke:#181818;stroke-width:0.5;" width="102" x="999" y="968.5"/><ellipse cx="1014" cy="989.8516" fill="#B4A7E5" rx="11" ry="11" style="stroke:#181818;stroke-width:1.0;"/><path d="M1014.9531,986.4922 L1014.9531,993.1484 L1016.6719,993.1484 Q1017.2813,993.1484 1017.5469,993.3828 Q1017.8125,993.6172 1017.8125,994.0078 Q1017.8125,994.3828 1017.5469,994.6172 Q1017.2813,994.8516 1016.6719,994.8516 L1011.5313,994.8516 Q1010.9219,994.8516 1010.6563,994.6172 Q1010.3906,994.3828 1010.3906,993.9922 Q1010.3906,993.6172 1010.6563,993.3828 Q1010.9219,993.1484 1011.5313,993.1484 L1013.25,993.1484 L1013.25,986.4922 L1011.5313,986.4922 Q1010.9219,986.4922 1010.6563,986.2578 Q1010.3906,986.0234 1010.3906,985.6328 Q1010.3906,985.2578 1010.6563,985.0234 Q1010.9219,984.7891 1011.5313,984.7891 L1016.6719,984.7891 Q1017.2813,984.7891 1017.5469,985.0234 Q1017.8125,985.2578 1017.8125,985.6328 Q1017.8125,986.0234 1017.5469,986.2578 Q1017.2813,986.4922 1016.6719,986.4922 L1014.9531,986.4922 Z " fill="#000000"/><text fill="#000000" font-family="sans-serif" font-size="12" font-style="italic" lengthAdjust="spacing" textLength="74" x="1026" y="985.957">&#171;sealed trait&#187;</text><text fill="#000000" font-family="sans-serif" font-size="14" font-style="italic" lengthAdjust="spacing" textLength="50" x="1038" y="1003.127">SPType</text><line style="stroke:#181818;stroke-width:0.5;" x1="1000" x2="1100" y1="1011.2031" y2="1011.2031"/><line style="stroke:#181818;stroke-width:0.5;" x1="1000" x2="1100" y1="1019.2031" y2="1019.2031"/></g><!--class SealedConceptObject--><g id="elem_SealedConceptObject"><rect codeLine="26" fill="#F1F1F1" height="111.5313" id="SealedConceptObject" rx="2.5" ry="2.5" style="stroke:#181818;stroke-width:0.5;" width="205" x="517.5" y="718"/><ellipse cx="543.3" cy="739.3516" fill="#B4A7E5" rx="11" ry="11" style="stroke:#181818;stroke-width:1.0;"/><path d="M544.2531,735.9922 L544.2531,742.6484 L545.9719,742.6484 Q546.5813,742.6484 546.8469,742.8828 Q547.1125,743.1172 547.1125,743.5078 Q547.1125,743.8828 546.8469,744.1172 Q546.5813,744.3516 545.9719,744.3516 L540.8313,744.3516 Q540.2219,744.3516 539.9563,744.1172 Q539.6906,743.8828 539.6906,743.4922 Q539.6906,743.1172 539.9563,742.8828 Q540.2219,742.6484 540.8313,742.6484 L542.55,742.6484 L542.55,735.9922 L540.8313,735.9922 Q540.2219,735.9922 539.9563,735.7578 Q539.6906,735.5234 539.6906,735.1328 Q539.6906,734.7578 539.9563,734.5234 Q540.2219,734.2891 540.8313,734.2891 L545.9719,734.2891 Q546.5813,734.2891 546.8469,734.5234 Q547.1125,734.7578 547.1125,735.1328 Q547.1125,735.5234 546.8469,735.7578 Q546.5813,735.9922 545.9719,735.9922 L544.2531,735.9922 Z " fill="#000000"/><text fill="#000000" font-family="sans-serif" font-size="12" font-style="italic" lengthAdjust="spacing" textLength="74" x="591.7" y="735.457">&#171;sealed trait&#187;</text><text fill="#000000" font-family="sans-serif" font-size="14" font-style="italic" lengthAdjust="spacing" textLength="138" x="559.7" y="752.627">SealedConceptObject</text><rect fill="#FFFFFF" height="17.0938" style="stroke:#181818;stroke-width:1.0;stroke-dasharray:2.0,2.0;" width="9" x="716.5" y="715"/><text fill="#000000" font-family="sans-serif" font-size="12" font-style="italic" lengthAdjust="spacing" textLength="7" x="717.5" y="728.457">T</text><line style="stroke:#181818;stroke-width:0.5;" x1="518.5" x2="721.5" y1="760.7031" y2="760.7031"/><line style="stroke:#181818;stroke-width:0.5;" x1="518.5" x2="721.5" y1="768.7031" y2="768.7031"/><ellipse cx="528.5" cy="783.0078" fill="#84BE84" rx="3" ry="3" style="stroke:#038048;stroke-width:1.0;"/><text fill="#000000" font-family="sans-serif" font-size="14" font-style="italic" lengthAdjust="spacing" textLength="105" x="537.5" y="787.2363">jsonKey(): String</text><ellipse cx="528.5" cy="800.6172" fill="#84BE84" rx="3" ry="3" style="stroke:#038048;stroke-width:1.0;"/><text fill="#000000" font-family="sans-serif" font-size="14" font-style="italic" lengthAdjust="spacing" textLength="109" x="537.5" y="804.8457">ALL(): Vector&lt;T&gt;</text><ellipse cx="528.5" cy="818.2266" fill="#84BE84" rx="3" ry="3" style="stroke:#038048;stroke-width:1.0;"/><text fill="#000000" font-family="sans-serif" font-size="14" font-style="italic" lengthAdjust="spacing" textLength="179" x="537.5" y="822.4551">ALL_MAP(): Map&lt;String, T&gt;</text></g><!--class Semester--><g id="elem_Semester"><rect codeLine="32" fill="#F1F1F1" height="93.9219" id="Semester" rx="2.5" ry="2.5" style="stroke:#181818;stroke-width:0.5;" width="207" x="46.5" y="951"/><ellipse cx="110.75" cy="972.3516" fill="#B4A7E5" rx="11" ry="11" style="stroke:#181818;stroke-width:1.0;"/><path d="M111.7031,968.9922 L111.7031,975.6484 L113.4219,975.6484 Q114.0313,975.6484 114.2969,975.8828 Q114.5625,976.1172 114.5625,976.5078 Q114.5625,976.8828 114.2969,977.1172 Q114.0313,977.3516 113.4219,977.3516 L108.2813,977.3516 Q107.6719,977.3516 107.4063,977.1172 Q107.1406,976.8828 107.1406,976.4922 Q107.1406,976.1172 107.4063,975.8828 Q107.6719,975.6484 108.2813,975.6484 L110,975.6484 L110,968.9922 L108.2813,968.9922 Q107.6719,968.9922 107.4063,968.7578 Q107.1406,968.5234 107.1406,968.1328 Q107.1406,967.7578 107.4063,967.5234 Q107.6719,967.2891 108.2813,967.2891 L113.4219,967.2891 Q114.0313,967.2891 114.2969,967.5234 Q114.5625,967.7578 114.5625,968.1328 Q114.5625,968.5234 114.2969,968.7578 Q114.0313,968.9922 113.4219,968.9922 L111.7031,968.9922 Z " fill="#000000"/><text fill="#000000" font-family="sans-serif" font-size="12" font-style="italic" lengthAdjust="spacing" textLength="74" x="129.25" y="968.457">&#171;sealed trait&#187;</text><text fill="#000000" font-family="sans-serif" font-size="14" font-style="italic" lengthAdjust="spacing" textLength="60" x="136.25" y="985.627">Semester</text><line style="stroke:#181818;stroke-width:0.5;" x1="47.5" x2="252.5" y1="993.7031" y2="993.7031"/><ellipse cx="57.5" cy="1008.0078" fill="none" rx="3" ry="3" style="stroke:#038048;stroke-width:1.0;"/><text fill="#000000" font-family="sans-serif" font-size="14" lengthAdjust="spacing" textLength="181" x="66.5" y="1012.2363">makeupSession: ExaSession</text><line style="stroke:#181818;stroke-width:0.5;" x1="47.5" x2="252.5" y1="1019.3125" y2="1019.3125"/><ellipse cx="57.5" cy="1033.6172" fill="#84BE84" rx="3" ry="3" style="stroke:#038048;stroke-width:1.0;"/><text fill="#000000" font-family="sans-serif" font-size="14" lengthAdjust="spacing" textLength="139" x="66.5" y="1037.8457">session(): ExaSession</text></g><!--class Spring--><g id="elem_Spring"><rect codeLine="22" fill="#F1F1F1" height="58.7031" id="Spring" rx="2.5" ry="2.5" style="stroke:#181818;stroke-width:0.5;" width="105" x="46.5" y="1224"/><ellipse cx="61.5" cy="1245.3516" fill="#FF0000" rx="11" ry="11" style="stroke:#181818;stroke-width:1.0;"/><path d="M66.875,1245.3203 Q66.875,1247.5859 65.4375,1249.1016 Q64,1250.6016 62.1094,1250.6016 Q60.4063,1250.6016 59.0313,1249.3516 Q57.3438,1247.7891 57.3438,1245.3203 Q57.3438,1242.8516 59.0313,1241.2891 Q60.4063,1240.0391 62.1094,1240.0391 Q64,1240.0391 65.4375,1241.5391 Q66.875,1243.0391 66.875,1245.3203 Z M65.1719,1245.3203 Q65.1719,1243.7734 64.2344,1242.7578 Q63.2969,1241.7422 62.1094,1241.7422 Q60.9219,1241.7422 59.9844,1242.7578 Q59.0469,1243.7734 59.0469,1245.3203 Q59.0469,1246.8672 59.9844,1247.8828 Q60.9219,1248.8984 62.1094,1248.8984 Q63.2969,1248.8984 64.2344,1247.8828 Q65.1719,1246.8672 65.1719,1245.3203 Z " fill="#000000"/><text fill="#000000" font-family="sans-serif" font-size="12" font-style="italic" lengthAdjust="spacing" textLength="77" x="73.5" y="1241.457">&#171;case object&#187;</text><text fill="#000000" font-family="sans-serif" font-size="14" lengthAdjust="spacing" textLength="41" x="91.5" y="1258.627">Spring</text><line style="stroke:#181818;stroke-width:0.5;" x1="47.5" x2="150.5" y1="1266.7031" y2="1266.7031"/><line style="stroke:#181818;stroke-width:0.5;" x1="47.5" x2="150.5" y1="1274.7031" y2="1274.7031"/></g><!--class Autumn--><g id="elem_Autumn"><rect codeLine="23" fill="#F1F1F1" height="58.7031" id="Autumn" rx="2.5" ry="2.5" style="stroke:#181818;stroke-width:0.5;" width="105" x="186.5" y="1224"/><ellipse cx="201.5" cy="1245.3516" fill="#FF0000" rx="11" ry="11" style="stroke:#181818;stroke-width:1.0;"/><path d="M206.875,1245.3203 Q206.875,1247.5859 205.4375,1249.1016 Q204,1250.6016 202.1094,1250.6016 Q200.4063,1250.6016 199.0313,1249.3516 Q197.3438,1247.7891 197.3438,1245.3203 Q197.3438,1242.8516 199.0313,1241.2891 Q200.4063,1240.0391 202.1094,1240.0391 Q204,1240.0391 205.4375,1241.5391 Q206.875,1243.0391 206.875,1245.3203 Z M205.1719,1245.3203 Q205.1719,1243.7734 204.2344,1242.7578 Q203.2969,1241.7422 202.1094,1241.7422 Q200.9219,1241.7422 199.9844,1242.7578 Q199.0469,1243.7734 199.0469,1245.3203 Q199.0469,1246.8672 199.9844,1247.8828 Q200.9219,1248.8984 202.1094,1248.8984 Q203.2969,1248.8984 204.2344,1247.8828 Q205.1719,1246.8672 205.1719,1245.3203 Z " fill="#000000"/><text fill="#000000" font-family="sans-serif" font-size="12" font-style="italic" lengthAdjust="spacing" textLength="77" x="213.5" y="1241.457">&#171;case object&#187;</text><text fill="#000000" font-family="sans-serif" font-size="14" lengthAdjust="spacing" textLength="48" x="228" y="1258.627">Autumn</text><line style="stroke:#181818;stroke-width:0.5;" x1="187.5" x2="290.5" y1="1266.7031" y2="1266.7031"/><line style="stroke:#181818;stroke-width:0.5;" x1="187.5" x2="290.5" y1="1274.7031" y2="1274.7031"/></g><!--class Yearly--><g id="elem_Yearly"><rect codeLine="24" fill="#F1F1F1" height="58.7031" id="Yearly" rx="2.5" ry="2.5" style="stroke:#181818;stroke-width:0.5;" width="105" x="326.5" y="1224"/><ellipse cx="341.5" cy="1245.3516" fill="#FF0000" rx="11" ry="11" style="stroke:#181818;stroke-width:1.0;"/><path d="M346.875,1245.3203 Q346.875,1247.5859 345.4375,1249.1016 Q344,1250.6016 342.1094,1250.6016 Q340.4063,1250.6016 339.0313,1249.3516 Q337.3438,1247.7891 337.3438,1245.3203 Q337.3438,1242.8516 339.0313,1241.2891 Q340.4063,1240.0391 342.1094,1240.0391 Q344,1240.0391 345.4375,1241.5391 Q346.875,1243.0391 346.875,1245.3203 Z M345.1719,1245.3203 Q345.1719,1243.7734 344.2344,1242.7578 Q343.2969,1241.7422 342.1094,1241.7422 Q340.9219,1241.7422 339.9844,1242.7578 Q339.0469,1243.7734 339.0469,1245.3203 Q339.0469,1246.8672 339.9844,1247.8828 Q340.9219,1248.8984 342.1094,1248.8984 Q343.2969,1248.8984 344.2344,1247.8828 Q345.1719,1246.8672 345.1719,1245.3203 Z " fill="#000000"/><text fill="#000000" font-family="sans-serif" font-size="12" font-style="italic" lengthAdjust="spacing" textLength="77" x="353.5" y="1241.457">&#171;case object&#187;</text><text fill="#000000" font-family="sans-serif" font-size="14" lengthAdjust="spacing" textLength="40" x="372" y="1258.627">Yearly</text><line style="stroke:#181818;stroke-width:0.5;" x1="327.5" x2="430.5" y1="1266.7031" y2="1266.7031"/><line style="stroke:#181818;stroke-width:0.5;" x1="327.5" x2="430.5" y1="1274.7031" y2="1274.7031"/></g><!--reverse link ExaSession to Jan--><g id="link_ExaSession_Jan"><path codeLine="97" d="M350,1032.62 C350,1032.62 350,1104.94 350,1104.94 " fill="none" id="ExaSession-backto-Jan" style="stroke:#181818;stroke-width:1.0;stroke-dasharray:7.0,7.0;"/><polygon fill="#181818" points="350,1027.62,346,1036.62,350,1032.62,354,1036.62,350,1027.62" style="stroke:#181818;stroke-width:1.0;"/></g><!--reverse link ExaSession to Aug--><g id="link_ExaSession_Aug"><path codeLine="98" d="M292.28,1008 C292.28,1008 258,1008 258,1008 C258,1008 258,1067.45 258,1104.84 " fill="none" id="ExaSession-backto-Aug" style="stroke:#181818;stroke-width:1.0;stroke-dasharray:7.0,7.0;"/><polygon fill="#181818" points="297.28,1008,288.28,1004,292.28,1008,288.28,1012,297.28,1008" style="stroke:#181818;stroke-width:1.0;"/></g><!--reverse link ExaSession to Jul--><g id="link_ExaSession_Jul"><path codeLine="99" d="M407.6,1008 C407.6,1008 477.5,1008 477.5,1008 C477.5,1008 477.5,1067.45 477.5,1104.84 " fill="none" id="ExaSession-backto-Jul" style="stroke:#181818;stroke-width:1.0;stroke-dasharray:7.0,7.0;"/><polygon fill="#181818" points="402.6,1008,411.6,1012,407.6,1008,411.6,1004,402.6,1008" style="stroke:#181818;stroke-width:1.0;"/></g><!--reverse link Semester to ExaSession--><g id="link_Semester_ExaSession"><path codeLine="100" d="M266.51,989 C266.51,989 297.26,989 297.26,989 " fill="none" id="Semester-backto-ExaSession" style="stroke:#181818;stroke-width:1.0;"/><polygon fill="#181818" points="253.51,989,259.5144,992.9934,265.51,988.9868,259.5056,984.9934,253.51,989" style="stroke:#181818;stroke-width:1.0;"/></g><!--reverse link SPType to Bachelor--><g id="link_SPType_Bachelor"><path codeLine="101" d="M1067,1032.62 C1067,1032.62 1067,1104.94 1067,1104.94 " fill="none" id="SPType-backto-Bachelor" style="stroke:#181818;stroke-width:1.0;stroke-dasharray:7.0,7.0;"/><polygon fill="#181818" points="1067,1027.62,1063,1036.62,1067,1032.62,1071,1036.62,1067,1027.62" style="stroke:#181818;stroke-width:1.0;"/></g><!--reverse link SPType to Master--><g id="link_SPType_Master"><path codeLine="102" d="M1106.15,998 C1106.15,998 1113,998 1113,998 C1113,998 1113,1135 1113,1135 C1113,1135 1123.83,1135 1137.36,1135 " fill="none" id="SPType-backto-Master" style="stroke:#181818;stroke-width:1.0;stroke-dasharray:7.0,7.0;"/><polygon fill="#181818" points="1101.15,998,1110.15,1002,1106.15,998,1110.15,994,1101.15,998" style="stroke:#181818;stroke-width:1.0;"/></g><!--reverse link SPType to Phd--><g id="link_SPType_Phd"><path codeLine="103" d="M1033,1032.56 C1033,1032.56 1033,1037 1033,1037 C1033,1037 1330,1037 1330,1037 C1330,1037 1330,1076.29 1330,1104.98 " fill="none" id="SPType-backto-Phd" style="stroke:#181818;stroke-width:1.0;stroke-dasharray:7.0,7.0;"/><polygon fill="#181818" points="1033,1027.56,1029,1036.56,1033,1032.56,1037,1036.56,1033,1027.56" style="stroke:#181818;stroke-width:1.0;"/></g><!--reverse link SealedConceptObject to Semester--><g id="link_SealedConceptObject_Semester"><path codeLine="104" d="M525.83,850.06 C525.83,850.06 525.83,960 525.83,960 C525.83,960 364.94,960 253.69,960 " fill="none" id="SealedConceptObject-backto-Semester" style="stroke:#008200;stroke-width:1.0;"/><polygon fill="none" points="518.83,850.06,525.83,830.06,532.83,850.06,518.83,850.06" style="stroke:#008200;stroke-width:1.0;"/></g><!--reverse link Semester to Spring--><g id="link_Semester_Spring"><path codeLine="105" d="M99,1050.16 C99,1050.16 99,1223.77 99,1223.77 " fill="none" id="Semester-backto-Spring" style="stroke:#181818;stroke-width:1.0;stroke-dasharray:7.0,7.0;"/><polygon fill="#181818" points="99,1045.16,95,1054.16,99,1050.16,103,1054.16,99,1045.16" style="stroke:#181818;stroke-width:1.0;"/></g><!--reverse link Semester to Autumn--><g id="link_Semester_Autumn"><path codeLine="106" d="M258.71,1041 C258.71,1041 277,1041 277,1041 C277,1041 277,1165.56 277,1223.95 " fill="none" id="Semester-backto-Autumn" style="stroke:#181818;stroke-width:1.0;stroke-dasharray:7.0,7.0;"/><polygon fill="#181818" points="253.71,1041,262.71,1045,258.71,1041,262.71,1037,253.71,1041" style="stroke:#181818;stroke-width:1.0;"/></g><!--reverse link Semester to Yearly--><g id="link_Semester_Yearly"><path codeLine="107" d="M258.61,1032 C258.61,1032 417,1032 417,1032 C417,1032 417,1163.17 417,1223.63 " fill="none" id="Semester-backto-Yearly" style="stroke:#181818;stroke-width:1.0;stroke-dasharray:7.0,7.0;"/><polygon fill="#181818" points="253.61,1032,262.61,1036,258.61,1032,262.61,1028,253.61,1032" style="stroke:#181818;stroke-width:1.0;"/></g><!--reverse link SealedConceptObject to ExaSession--><g id="link_SealedConceptObject_ExaSession"><path codeLine="108" d="M534.17,850.21 C534.17,850.21 534.17,989 534.17,989 C534.17,989 457.2,989 402.77,989 " fill="none" id="SealedConceptObject-backto-ExaSession" style="stroke:#008200;stroke-width:1.0;"/><polygon fill="none" points="527.17,850.21,534.17,830.21,541.17,850.21,527.17,850.21" style="stroke:#008200;stroke-width:1.0;"/></g><!--reverse link CourseActivity to Lectures--><g id="link_CourseActivity_Lectures"><path codeLine="109" d="M739,1032.62 C739,1032.62 739,1104.94 739,1104.94 " fill="none" id="CourseActivity-backto-Lectures" style="stroke:#181818;stroke-width:1.0;stroke-dasharray:7.0,7.0;"/><polygon fill="#181818" points="739,1027.62,735,1036.62,739,1032.62,743,1036.62,739,1027.62" style="stroke:#181818;stroke-width:1.0;"/></g><!--reverse link CourseActivity to Exercices--><g id="link_CourseActivity_Exercices"><path codeLine="110" d="M661,1032.62 C661,1032.62 661,1104.94 661,1104.94 " fill="none" id="CourseActivity-backto-Exercices" style="stroke:#181818;stroke-width:1.0;stroke-dasharray:7.0,7.0;"/><polygon fill="#181818" points="661,1027.62,657,1036.62,661,1032.62,665,1036.62,661,1027.62" style="stroke:#181818;stroke-width:1.0;"/></g><!--reverse link CourseActivity to Practice--><g id="link_CourseActivity_Practice"><path codeLine="111" d="M765.74,998 C765.74,998 910,998 910,998 C910,998 910,1064.74 910,1104.88 " fill="none" id="CourseActivity-backto-Practice" style="stroke:#181818;stroke-width:1.0;stroke-dasharray:7.0,7.0;"/><polygon fill="#181818" points="760.74,998,769.74,1002,765.74,998,769.74,994,760.74,998" style="stroke:#181818;stroke-width:1.0;"/></g><!--reverse link SealedConceptObject to SPType--><g id="link_SealedConceptObject_SPType"><path codeLine="112" d="M742.72,793 C742.72,793 1050,793 1050,793 C1050,793 1050,911.33 1050,968.19 " fill="none" id="SealedConceptObject-backto-SPType" style="stroke:#008200;stroke-width:1.0;"/><polygon fill="none" points="742.72,800,722.72,793,742.72,786,742.72,800" style="stroke:#008200;stroke-width:1.0;"/></g><!--reverse link SealedConceptObject to CourseHours--><g id="link_SealedConceptObject_CourseHours"><path codeLine="113" d="M742.69,756 C742.69,756 1147.75,756 1147.75,756 C1147.75,756 1147.75,903.71 1147.75,968.33 " fill="none" id="SealedConceptObject-backto-CourseHours" style="stroke:#008200;stroke-width:1.0;"/><polygon fill="none" points="742.69,763,722.69,756,742.69,749,742.69,763" style="stroke:#008200;stroke-width:1.0;"/></g><!--reverse link SealedConceptObject to CourseActivity--><g id="link_SealedConceptObject_CourseActivity"><path codeLine="114" d="M681,850.24 C681,850.24 681,968.22 681,968.22 " fill="none" id="SealedConceptObject-backto-CourseActivity" style="stroke:#008200;stroke-width:1.0;"/><polygon fill="none" points="674,850.24,681,830.24,688,850.24,674,850.24" style="stroke:#008200;stroke-width:1.0;"/></g><!--reverse link Course to SealedConceptObject--><g id="link_Course_SealedConceptObject"><path codeLine="117" d="M620,610.16 C620,610.16 620,717.76 620,717.76 " fill="none" id="Course-backto-SealedConceptObject" style="stroke:#181818;stroke-width:1.0;"/><polygon fill="#181818" points="620,597.16,616,603.16,620,609.16,624,603.16,620,597.16" style="stroke:#181818;stroke-width:1.0;"/></g><!--reverse link StudyPlan to Course--><g id="link_StudyPlan_Course"><path codeLine="118" d="M557,184.34 C557,184.34 557,230.97 557,230.97 " fill="none" id="StudyPlan-backto-Course" style="stroke:#181818;stroke-width:1.0;"/><polygon fill="none" points="557,171.34,553,177.34,557,183.34,561,177.34,557,171.34" style="stroke:#181818;stroke-width:1.0;"/></g><!--link Course to RequestHandler--><g id="link_Course_RequestHandler"><path codeLine="119" d="M821.04,414 C821.04,414 851.49,414 851.49,414 " fill="none" id="Course-to-RequestHandler" style="stroke:#181818;stroke-width:1.0;"/><polygon fill="#181818" points="856.49,414,847.49,410,851.49,414,847.49,418,856.49,414" style="stroke:#181818;stroke-width:1.0;"/></g><!--link RequestHandler to Response--><g id="link_RequestHandler_Response"><path codeLine="120" d="M1123.64,414 C1123.64,414 1145.98,414 1145.98,414 " fill="none" id="RequestHandler-to-Response" style="stroke:#181818;stroke-width:1.0;"/><polygon fill="#181818" points="1158.98,414,1152.98,410,1146.98,414,1152.98,418,1158.98,414" style="stroke:#181818;stroke-width:1.0;"/></g><!--SRC=[bLVRRjiu47tNLmomBt9hkS4-BGJ3G1gqsyqcZL4d2nH5KJ0KOokXHPMNR8nk_ds78aLTB3kA7WoRS-7Cd3EZiNh8Yv98iWMU5qplIWP2wes8efBG1x9cG3SpnGXd6HK5PQM6Nn40AtIkTt1grZ2VnrTJoR89KABG-lQUKRrOD4hl2TqmBkGHpRpGJDuHok1C6AdOATNvexMTpy5T3bgIN4EbJJbHocj-ifzMhNBf93sN7vx8YYcLYsB8NHFdXoScQKwPEXXeetjEYfSJFpTyXAiBF33ooAr1yv8epEbblUKc6w4a2HOPopC6bTNosZ9Z48sMLYKxSpIvglpChnSlMssPpsj0pqUxAcLU7EGQj1cfpNO4DbyPaNnt39uNyx9z0F0MVf5RfMqrd-5UYU9ljeidAQoqZNXVvVJYmeh_GIT2efj1ZH-NfqkhTKdAkNCqXKhrEHgkNHtBbZmmKtgwfotgUxbolwplZWpzFhSwllBdckaB-sdmZa-ao3XUX4-_sVpbIKyrbkndNOOfbEWuXRyAFN7AIL8dhZH17Zx3BVgyaRnVkLgijCcMd1IeqXVHQXBK0kyv0Ud2YKtZj8yBAKjUeVM5gTAV5Un9n_PZ6K9EUwcrxsd5iMOw7jRT2pREitJ8ysGexPtD-v151Lu3bYf5WTZ04Q3U1ZM4IALuXOFeaM2TAfnQC7aBIsnalatlt7r5_dhPXgZFjcOeUoy4PwJeuj3KHrbEKh6ThOLOSpQp1xC_bMTWTx0VJU0i534GR8SDNQ4r1Mnmpj9Qe4exkr8_m-plhvMgbqUkLjWPhfNIq5HJFmxoHzPSap55PLxgghtgGuHdRIgsz9nYangkTuqcmo9VYgpbS6DJ-NoRjjzdU8sWPekZYdGkgjqIWszegS8KSUB5j65BTtJ4LLaigWiBiyo5KNjE4HTxOn1q612_UmT2Rt00tEMCPr08ZMC8RGfaZx51f3LrxuJS4ft2LLMaEZOlB2MpzCrLhYtr1dMCOdU6VqING_90ITjjWmIOm1v94r3vjkHujnByaNK6-lnw2ZUmI770nlUYRUfAewX83xm2aF4tOTXKdbiWnfEkwDI1rZzUXGPtWjbiLXUIsBhk3YHP4mOG6KeuLsxy04u5-5V81mMuxtJAW3C-z5YuzN2FhTgJPo20BXezfeVN3MqJs9-w4HZe-yqbyhqAqGOPHNQzwZv9yYqZQiEoxwPSG7kd2qzajz7NMzajxVLM-uU9ATz061vHs7eFkVKxLUU9_8e7hxEo2z_H50QjmlBGjlhjvEIFtqzEq2pvpnhkynuDtJ9suBfaqQg2NyV6gFgDR8pgGF77HHvsxKE5wlt_Y9h_1ECCB1ZrOZtsZdrmHcRJ_WVq2iEe7_9OkoWQ2YD1uYTlV5BUjss6H3GZ91ml-jjBRxr4H_Lo4lqF]--></g></svg>