<?xml version="1.0" encoding="us-ascii" standalone="no"?><svg xmlns="http://www.w3.org/2000/svg" xmlns:xlink="http://www.w3.org/1999/xlink" contentStyleType="text/css" height="866px" preserveAspectRatio="none" style="width:1159px;height:866px;background:#FFFFFF;" version="1.1" viewBox="0 0 1159 866" width="1159px" zoomAndPan="magnify"><defs/><g><!--cluster ch--><g id="cluster_ch"><path d="M8.5,6 L26.5,6 A3.75,3.75 0 0 1 29,8.5 L36,29.6094 L1149.5,29.6094 A2.5,2.5 0 0 1 1152,32.1094 L1152,856.5 A2.5,2.5 0 0 1 1149.5,859 L8.5,859 A2.5,2.5 0 0 1 6,856.5 L6,8.5 A2.5,2.5 0 0 1 8.5,6 " fill="none" style="stroke:#000000;stroke-width:1.5;"/><line style="stroke:#000000;stroke-width:1.5;" x1="6" x2="36" y1="29.6094" y2="29.6094"/><text fill="#000000" font-family="sans-serif" font-size="14" font-weight="bold" lengthAdjust="spacing" textLength="17" x="10" y="22.5332">ch</text></g><!--cluster sealedconcept--><g id="cluster_sealedconcept"><path d="M169.5,682 L274.5,682 A3.75,3.75 0 0 1 277,684.5 L284,705.6094 L402.5,705.6094 A2.5,2.5 0 0 1 405,708.1094 L405,832.5 A2.5,2.5 0 0 1 402.5,835 L169.5,835 A2.5,2.5 0 0 1 167,832.5 L167,684.5 A2.5,2.5 0 0 1 169.5,682 " fill="none" style="stroke:#000000;stroke-width:1.5;"/><line style="stroke:#000000;stroke-width:1.5;" x1="167" x2="284" y1="705.6094" y2="705.6094"/><text fill="#000000" font-family="sans-serif" font-size="14" font-weight="bold" lengthAdjust="spacing" textLength="104" x="171" y="698.5332">sealedconcept</text></g><!--class RequestHandler--><g id="elem_RequestHandler"><rect codeLine="11" fill="#F1F1F1" height="250.7969" id="RequestHandler" rx="2.5" ry="2.5" style="stroke:#181818;stroke-width:0.5;" width="267" x="585.5" y="288.5"/><ellipse cx="663.75" cy="309.8516" fill="#ADD1B2" rx="11" ry="11" style="stroke:#181818;stroke-width:1.0;"/><path d="M666.5156,305.7266 Q666.6719,305.5078 666.8594,305.3984 Q667.0469,305.2891 667.2656,305.2891 Q667.6406,305.2891 667.875,305.5547 Q668.1094,305.8047 668.1094,306.4141 L668.1094,307.8672 Q668.1094,308.4766 667.875,308.7422 Q667.6406,309.0078 667.2656,309.0078 Q666.9219,309.0078 666.7188,308.8047 Q666.5156,308.6172 666.4063,308.1016 Q666.3594,307.7422 666.1719,307.5547 Q665.8438,307.1797 665.2344,306.9609 Q664.625,306.7422 664,306.7422 Q663.2344,306.7422 662.5938,307.0703 Q661.9688,307.3984 661.4688,308.1484 Q660.9844,308.8984 660.9844,309.9297 L660.9844,311.0234 Q660.9844,312.2578 661.875,313.0859 Q662.7656,313.8984 664.3594,313.8984 Q665.2969,313.8984 665.9531,313.6484 Q666.3438,313.4922 666.7656,313.0547 Q667.0313,312.7891 667.1719,312.7109 Q667.3281,312.6328 667.5313,312.6328 Q667.8594,312.6328 668.1094,312.8984 Q668.375,313.1484 668.375,313.4922 Q668.375,313.8359 668.0313,314.2422 Q667.5313,314.8203 666.7344,315.1484 Q665.6563,315.6016 664.3594,315.6016 Q662.8438,315.6016 661.6406,314.9766 Q660.6563,314.4766 659.9688,313.4141 Q659.2813,312.3359 659.2813,311.0547 L659.2813,309.8984 Q659.2813,308.5703 659.8906,307.4297 Q660.5156,306.2734 661.6094,305.6641 Q662.7031,305.0391 663.9375,305.0391 Q664.6719,305.0391 665.3125,305.2109 Q665.9688,305.3672 666.5156,305.7266 Z " fill="#000000"/><text fill="#000000" font-family="sans-serif" font-size="12" font-style="italic" lengthAdjust="spacing" textLength="71" x="699.75" y="305.957">&#171;case class&#187;</text><text fill="#000000" font-family="sans-serif" font-size="14" lengthAdjust="spacing" textLength="102" x="684.25" y="323.127">RequestHandler</text><line style="stroke:#181818;stroke-width:0.5;" x1="586.5" x2="851.5" y1="331.2031" y2="331.2031"/><rect fill="#F24D5C" height="6" style="stroke:#C82930;stroke-width:1.0;" width="6" x="593.5" y="342.5078"/><text fill="#000000" font-family="sans-serif" font-size="14" lengthAdjust="spacing" textLength="241" x="605.5" y="349.7363">RequestHandler(req: String, page: Int)</text><line style="stroke:#181818;stroke-width:1.0;" x1="586.5" x2="851.5" y1="356.8125" y2="356.8125"/><ellipse cx="596.5" cy="371.1172" fill="none" rx="3" ry="3" style="stroke:#038048;stroke-width:1.0;"/><text fill="#000000" font-family="sans-serif" font-size="14" lengthAdjust="spacing" text-decoration="underline" textLength="93" x="605.5" y="375.3457">baseUrl: String</text><ellipse cx="596.5" cy="388.7266" fill="none" rx="3" ry="3" style="stroke:#038048;stroke-width:1.0;"/><text fill="#000000" font-family="sans-serif" font-size="14" lengthAdjust="spacing" text-decoration="underline" textLength="72" x="605.5" y="392.9551">studPlanUrl</text><ellipse cx="596.5" cy="406.3359" fill="none" rx="3" ry="3" style="stroke:#038048;stroke-width:1.0;"/><text fill="#000000" font-family="sans-serif" font-size="14" lengthAdjust="spacing" text-decoration="underline" textLength="60" x="605.5" y="410.5645">courseUrl</text><line style="stroke:#181818;stroke-width:1.0;" x1="586.5" x2="851.5" y1="417.6406" y2="417.6406"/><rect fill="#F24D5C" height="6" style="stroke:#C82930;stroke-width:1.0;" width="6" x="593.5" y="428.9453"/><text fill="#000000" font-family="sans-serif" font-size="14" lengthAdjust="spacing" textLength="164" x="605.5" y="436.1738">request(url: String): String</text><ellipse cx="596.5" cy="449.5547" fill="#84BE84" rx="3" ry="3" style="stroke:#038048;stroke-width:1.0;"/><text fill="#000000" font-family="sans-serif" font-size="14" lengthAdjust="spacing" textLength="85" x="605.5" y="453.7832">apply(): Resp</text><ellipse cx="596.5" cy="467.1641" fill="#84BE84" rx="3" ry="3" style="stroke:#038048;stroke-width:1.0;"/><text fill="#000000" font-family="sans-serif" font-size="14" lengthAdjust="spacing" textLength="228" x="605.5" y="471.3926">next(nextPage: Int): RequestHandler</text><line style="stroke:#181818;stroke-width:1.0;" x1="586.5" x2="851.5" y1="478.4688" y2="478.4688"/><ellipse cx="596.5" cy="492.7734" fill="#84BE84" rx="3" ry="3" style="stroke:#038048;stroke-width:1.0;"/><text fill="#000000" font-family="sans-serif" font-size="14" lengthAdjust="spacing" text-decoration="underline" textLength="140" x="605.5" y="497.002">get(): RequestHandler</text><ellipse cx="596.5" cy="510.3828" fill="#84BE84" rx="3" ry="3" style="stroke:#038048;stroke-width:1.0;"/><text fill="#000000" font-family="sans-serif" font-size="14" lengthAdjust="spacing" text-decoration="underline" textLength="198" x="605.5" y="514.6113">course(id:Int): RequestHandler)</text><ellipse cx="596.5" cy="527.9922" fill="#84BE84" rx="3" ry="3" style="stroke:#038048;stroke-width:1.0;"/><text fill="#000000" font-family="sans-serif" font-size="14" lengthAdjust="spacing" text-decoration="underline" textLength="212" x="605.5" y="532.2207">studyPlan(id:Int): RequestHandler</text></g><!--class Response--><g id="elem_Response"><rect codeLine="26" fill="#F1F1F1" height="137.1406" id="Response" rx="2.5" ry="2.5" style="stroke:#181818;stroke-width:0.5;" width="248" x="888" y="345.5"/><ellipse cx="974.25" cy="366.8516" fill="#ADD1B2" rx="11" ry="11" style="stroke:#181818;stroke-width:1.0;"/><path d="M977.0156,362.7266 Q977.1719,362.5078 977.3594,362.3984 Q977.5469,362.2891 977.7656,362.2891 Q978.1406,362.2891 978.375,362.5547 Q978.6094,362.8047 978.6094,363.4141 L978.6094,364.8672 Q978.6094,365.4766 978.375,365.7422 Q978.1406,366.0078 977.7656,366.0078 Q977.4219,366.0078 977.2188,365.8047 Q977.0156,365.6172 976.9063,365.1016 Q976.8594,364.7422 976.6719,364.5547 Q976.3438,364.1797 975.7344,363.9609 Q975.125,363.7422 974.5,363.7422 Q973.7344,363.7422 973.0938,364.0703 Q972.4688,364.3984 971.9688,365.1484 Q971.4844,365.8984 971.4844,366.9297 L971.4844,368.0234 Q971.4844,369.2578 972.375,370.0859 Q973.2656,370.8984 974.8594,370.8984 Q975.7969,370.8984 976.4531,370.6484 Q976.8438,370.4922 977.2656,370.0547 Q977.5313,369.7891 977.6719,369.7109 Q977.8281,369.6328 978.0313,369.6328 Q978.3594,369.6328 978.6094,369.8984 Q978.875,370.1484 978.875,370.4922 Q978.875,370.8359 978.5313,371.2422 Q978.0313,371.8203 977.2344,372.1484 Q976.1563,372.6016 974.8594,372.6016 Q973.3438,372.6016 972.1406,371.9766 Q971.1563,371.4766 970.4688,370.4141 Q969.7813,369.3359 969.7813,368.0547 L969.7813,366.8984 Q969.7813,365.5703 970.3906,364.4297 Q971.0156,363.2734 972.1094,362.6641 Q973.2031,362.0391 974.4375,362.0391 Q975.1719,362.0391 975.8125,362.2109 Q976.4688,362.3672 977.0156,362.7266 Z " fill="#000000"/><text fill="#000000" font-family="sans-serif" font-size="12" font-style="italic" lengthAdjust="spacing" textLength="71" x="992.75" y="362.957">&#171;case class&#187;</text><text fill="#000000" font-family="sans-serif" font-size="14" lengthAdjust="spacing" textLength="64" x="996.25" y="380.127">Response</text><line style="stroke:#181818;stroke-width:0.5;" x1="889" x2="1135" y1="388.2031" y2="388.2031"/><ellipse cx="899" cy="402.5078" fill="#84BE84" rx="3" ry="3" style="stroke:#038048;stroke-width:1.0;"/><text fill="#000000" font-family="sans-serif" font-size="14" lengthAdjust="spacing" textLength="222" x="908" y="406.7363">Response(res: string, val: page:Int)</text><line style="stroke:#181818;stroke-width:1.0;" x1="889" x2="1135" y1="413.8125" y2="413.8125"/><ellipse cx="899" cy="428.1172" fill="#84BE84" rx="3" ry="3" style="stroke:#038048;stroke-width:1.0;"/><text fill="#000000" font-family="sans-serif" font-size="14" lengthAdjust="spacing" textLength="136" x="908" y="432.3457">jsonObj(): JsonObject</text><ellipse cx="899" cy="445.7266" fill="#84BE84" rx="3" ry="3" style="stroke:#038048;stroke-width:1.0;"/><text fill="#000000" font-family="sans-serif" font-size="14" lengthAdjust="spacing" textLength="120" x="908" y="449.9551">hasNext(): Boolean</text><line style="stroke:#181818;stroke-width:1.0;" x1="889" x2="1135" y1="457.0313" y2="457.0313"/><rect fill="none" height="6" style="stroke:#C82930;stroke-width:1.0;" width="6" x="896" y="468.3359"/><text fill="#000000" font-family="sans-serif" font-size="14" lengthAdjust="spacing" text-decoration="underline" textLength="185" x="908" y="475.5645">gson: com.google.gson.Gson</text></g><!--class Course--><g id="elem_Course"><rect codeLine="34" fill="#F1F1F1" height="366.0625" id="Course" rx="2.5" ry="2.5" style="stroke:#181818;stroke-width:0.5;" width="528" x="22" y="231"/><ellipse cx="248.25" cy="252.3516" fill="#ADD1B2" rx="11" ry="11" style="stroke:#181818;stroke-width:1.0;"/><path d="M251.0156,248.2266 Q251.1719,248.0078 251.3594,247.8984 Q251.5469,247.7891 251.7656,247.7891 Q252.1406,247.7891 252.375,248.0547 Q252.6094,248.3047 252.6094,248.9141 L252.6094,250.3672 Q252.6094,250.9766 252.375,251.2422 Q252.1406,251.5078 251.7656,251.5078 Q251.4219,251.5078 251.2188,251.3047 Q251.0156,251.1172 250.9063,250.6016 Q250.8594,250.2422 250.6719,250.0547 Q250.3438,249.6797 249.7344,249.4609 Q249.125,249.2422 248.5,249.2422 Q247.7344,249.2422 247.0938,249.5703 Q246.4688,249.8984 245.9688,250.6484 Q245.4844,251.3984 245.4844,252.4297 L245.4844,253.5234 Q245.4844,254.7578 246.375,255.5859 Q247.2656,256.3984 248.8594,256.3984 Q249.7969,256.3984 250.4531,256.1484 Q250.8438,255.9922 251.2656,255.5547 Q251.5313,255.2891 251.6719,255.2109 Q251.8281,255.1328 252.0313,255.1328 Q252.3594,255.1328 252.6094,255.3984 Q252.875,255.6484 252.875,255.9922 Q252.875,256.3359 252.5313,256.7422 Q252.0313,257.3203 251.2344,257.6484 Q250.1563,258.1016 248.8594,258.1016 Q247.3438,258.1016 246.1406,257.4766 Q245.1563,256.9766 244.4688,255.9141 Q243.7813,254.8359 243.7813,253.5547 L243.7813,252.3984 Q243.7813,251.0703 244.3906,249.9297 Q245.0156,248.7734 246.1094,248.1641 Q247.2031,247.5391 248.4375,247.5391 Q249.1719,247.5391 249.8125,247.7109 Q250.4688,247.8672 251.0156,248.2266 Z " fill="#000000"/><text fill="#000000" font-family="sans-serif" font-size="12" font-style="italic" lengthAdjust="spacing" textLength="71" x="266.75" y="248.457">&#171;case class&#187;</text><text fill="#000000" font-family="sans-serif" font-size="14" lengthAdjust="spacing" textLength="46" x="279.25" y="265.627">Course</text><line style="stroke:#181818;stroke-width:0.5;" x1="23" x2="549" y1="273.7031" y2="273.7031"/><ellipse cx="33" cy="288.0078" fill="#84BE84" rx="3" ry="3" style="stroke:#038048;stroke-width:1.0;"/><text fill="#000000" font-family="sans-serif" font-size="14" lengthAdjust="spacing" textLength="452" x="42" y="292.2363">Course(id: String, year: Int, title:String, spType: SPType, spYear: String,</text><text fill="#000000" font-family="sans-serif" font-size="14" lengthAdjust="spacing" textLength="473" x="42" y="309.8457">semester: Semester, objective: String, description: String, language: String,</text><text fill="#000000" font-family="sans-serif" font-size="14" lengthAdjust="spacing" textLength="502" x="42" y="327.4551">faculty: String, evalMode: String, hoursNb: CourseHours, documentation: String,</text><text fill="#000000" font-family="sans-serif" font-size="14" lengthAdjust="spacing" textLength="467" x="42" y="345.0645">authors: Vector&lt;String&gt;, studyPlan: Map&lt;String, (Int, Int)&gt;, various: String,</text><text fill="#000000" font-family="sans-serif" font-size="14" lengthAdjust="spacing" textLength="114" x="42" y="362.6738">comments: String)</text><line style="stroke:#181818;stroke-width:1.0;" x1="23" x2="549" y1="369.75" y2="369.75"/><text fill="#000000" font-family="sans-serif" font-size="14" lengthAdjust="spacing" textLength="203" x="42" y="388.2832">(// other field not in constructor:)</text><ellipse cx="33" cy="401.6641" fill="none" rx="3" ry="3" style="stroke:#038048;stroke-width:1.0;"/><text fill="#000000" font-family="sans-serif" font-size="14" lengthAdjust="spacing" textLength="143" x="42" y="405.8926">format: Option&lt;String&gt;</text><ellipse cx="33" cy="419.2734" fill="none" rx="3" ry="3" style="stroke:#038048;stroke-width:1.0;"/><text fill="#000000" font-family="sans-serif" font-size="14" lengthAdjust="spacing" textLength="190" x="42" y="423.502">preRequisites: Option&lt;String&gt;</text><ellipse cx="33" cy="436.8828" fill="none" rx="3" ry="3" style="stroke:#038048;stroke-width:1.0;"/><text fill="#000000" font-family="sans-serif" font-size="14" lengthAdjust="spacing" textLength="163" x="42" y="441.1113">usefulFor: Option&lt;String&gt;</text><line style="stroke:#181818;stroke-width:1.0;" x1="23" x2="549" y1="448.1875" y2="448.1875"/><ellipse cx="33" cy="462.4922" fill="#84BE84" rx="3" ry="3" style="stroke:#038048;stroke-width:1.0;"/><text fill="#000000" font-family="sans-serif" font-size="14" lengthAdjust="spacing" textLength="227" x="42" y="466.7207">get(id: String, year: Int) : JsonObject</text><rect fill="#F24D5C" height="6" style="stroke:#C82930;stroke-width:1.0;" width="6" x="30" y="477.1016"/><text fill="#000000" font-family="sans-serif" font-size="14" lengthAdjust="spacing" textLength="357" x="42" y="484.3301">simpleResolveSealedConcept&lt;T, U &gt;: T&gt;(jo: JsonObject,</text><text fill="#000000" font-family="sans-serif" font-size="14" lengthAdjust="spacing" textLength="215" x="42" y="501.9395">sco: SealedConceptObject&lt;T&gt;): U</text><rect fill="#F24D5C" height="6" style="stroke:#C82930;stroke-width:1.0;" width="6" x="30" y="512.3203"/><text fill="#000000" font-family="sans-serif" font-size="14" lengthAdjust="spacing" textLength="139" x="42" y="519.5488">resolveCourseHours()</text><rect fill="#F24D5C" height="6" style="stroke:#C82930;stroke-width:1.0;" width="6" x="30" y="529.9297"/><text fill="#000000" font-family="sans-serif" font-size="14" lengthAdjust="spacing" textLength="105" x="42" y="537.1582">resolveAuthors()</text><rect fill="#F24D5C" height="6" style="stroke:#C82930;stroke-width:1.0;" width="6" x="30" y="547.5391"/><text fill="#000000" font-family="sans-serif" font-size="14" lengthAdjust="spacing" textLength="120" x="42" y="554.7676">resolveStudyPlan()</text><text fill="#000000" font-family="sans-serif" font-size="14" lengthAdjust="spacing" textLength="12" x="42" y="572.377">...</text><ellipse cx="33" cy="585.7578" fill="#84BE84" rx="3" ry="3" style="stroke:#038048;stroke-width:1.0;"/><text fill="#000000" font-family="sans-serif" font-size="14" lengthAdjust="spacing" textLength="462" x="42" y="589.9863">factory(id: String, year: Int): Course // calls get() and works on JsonObject</text></g><!--class StudyPlan--><g id="elem_StudyPlan"><rect codeLine="57" fill="#F1F1F1" height="129.1406" id="StudyPlan" rx="2.5" ry="2.5" style="stroke:#181818;stroke-width:0.5;" width="215" x="178.5" y="42"/><ellipse cx="248.25" cy="63.3516" fill="#ADD1B2" rx="11" ry="11" style="stroke:#181818;stroke-width:1.0;"/><path d="M251.0156,59.2266 Q251.1719,59.0078 251.3594,58.8984 Q251.5469,58.7891 251.7656,58.7891 Q252.1406,58.7891 252.375,59.0547 Q252.6094,59.3047 252.6094,59.9141 L252.6094,61.3672 Q252.6094,61.9766 252.375,62.2422 Q252.1406,62.5078 251.7656,62.5078 Q251.4219,62.5078 251.2188,62.3047 Q251.0156,62.1172 250.9063,61.6016 Q250.8594,61.2422 250.6719,61.0547 Q250.3438,60.6797 249.7344,60.4609 Q249.125,60.2422 248.5,60.2422 Q247.7344,60.2422 247.0938,60.5703 Q246.4688,60.8984 245.9688,61.6484 Q245.4844,62.3984 245.4844,63.4297 L245.4844,64.5234 Q245.4844,65.7578 246.375,66.5859 Q247.2656,67.3984 248.8594,67.3984 Q249.7969,67.3984 250.4531,67.1484 Q250.8438,66.9922 251.2656,66.5547 Q251.5313,66.2891 251.6719,66.2109 Q251.8281,66.1328 252.0313,66.1328 Q252.3594,66.1328 252.6094,66.3984 Q252.875,66.6484 252.875,66.9922 Q252.875,67.3359 252.5313,67.7422 Q252.0313,68.3203 251.2344,68.6484 Q250.1563,69.1016 248.8594,69.1016 Q247.3438,69.1016 246.1406,68.4766 Q245.1563,67.9766 244.4688,66.9141 Q243.7813,65.8359 243.7813,64.5547 L243.7813,63.3984 Q243.7813,62.0703 244.3906,60.9297 Q245.0156,59.7734 246.1094,59.1641 Q247.2031,58.5391 248.4375,58.5391 Q249.1719,58.5391 249.8125,58.7109 Q250.4688,58.8672 251.0156,59.2266 Z " fill="#000000"/><text fill="#000000" font-family="sans-serif" font-size="12" font-style="italic" lengthAdjust="spacing" textLength="71" x="266.75" y="59.457">&#171;case class&#187;</text><text fill="#000000" font-family="sans-serif" font-size="14" lengthAdjust="spacing" textLength="64" x="270.25" y="76.627">StudyPlan</text><line style="stroke:#181818;stroke-width:0.5;" x1="179.5" x2="392.5" y1="84.7031" y2="84.7031"/><ellipse cx="189.5" cy="99.0078" fill="#84BE84" rx="3" ry="3" style="stroke:#038048;stroke-width:1.0;"/><text fill="#000000" font-family="sans-serif" font-size="14" lengthAdjust="spacing" textLength="189" x="198.5" y="103.2363">StudyPlan(id: String, year: Int)</text><line style="stroke:#181818;stroke-width:1.0;" x1="179.5" x2="392.5" y1="110.3125" y2="110.3125"/><ellipse cx="189.5" cy="124.6172" fill="none" rx="3" ry="3" style="stroke:#038048;stroke-width:1.0;"/><text fill="#000000" font-family="sans-serif" font-size="14" lengthAdjust="spacing" textLength="86" x="198.5" y="128.8457">faculty: String</text><ellipse cx="189.5" cy="142.2266" fill="none" rx="3" ry="3" style="stroke:#038048;stroke-width:1.0;"/><text fill="#000000" font-family="sans-serif" font-size="14" lengthAdjust="spacing" textLength="90" x="198.5" y="146.4551">section: String</text><ellipse cx="189.5" cy="159.8359" fill="none" rx="3" ry="3" style="stroke:#038048;stroke-width:1.0;"/><text fill="#000000" font-family="sans-serif" font-size="14" lengthAdjust="spacing" textLength="149" x="198.5" y="164.0645">courses: Vector[Course</text></g><!--class SealedConceptObject--><g id="elem_SealedConceptObject"><rect codeLine="5" fill="#F1F1F1" height="100.8281" id="SealedConceptObject" rx="2.5" ry="2.5" style="stroke:#181818;stroke-width:0.5;" width="205" x="183.5" y="718"/><ellipse cx="209.3" cy="734" fill="#B4A7E5" rx="11" ry="11" style="stroke:#181818;stroke-width:1.0;"/><path d="M210.2531,730.6406 L210.2531,737.2969 L211.9719,737.2969 Q212.5813,737.2969 212.8469,737.5313 Q213.1125,737.7656 213.1125,738.1563 Q213.1125,738.5313 212.8469,738.7656 Q212.5813,739 211.9719,739 L206.8313,739 Q206.2219,739 205.9563,738.7656 Q205.6906,738.5313 205.6906,738.1406 Q205.6906,737.7656 205.9563,737.5313 Q206.2219,737.2969 206.8313,737.2969 L208.55,737.2969 L208.55,730.6406 L206.8313,730.6406 Q206.2219,730.6406 205.9563,730.4063 Q205.6906,730.1719 205.6906,729.7813 Q205.6906,729.4063 205.9563,729.1719 Q206.2219,728.9375 206.8313,728.9375 L211.9719,728.9375 Q212.5813,728.9375 212.8469,729.1719 Q213.1125,729.4063 213.1125,729.7813 Q213.1125,730.1719 212.8469,730.4063 Q212.5813,730.6406 211.9719,730.6406 L210.2531,730.6406 Z " fill="#000000"/><text fill="#000000" font-family="sans-serif" font-size="14" font-style="italic" lengthAdjust="spacing" textLength="138" x="225.7" y="739.7285">SealedConceptObject</text><rect fill="#FFFFFF" height="17.0938" style="stroke:#181818;stroke-width:1.0;stroke-dasharray:2.0,2.0;" width="9" x="382.5" y="715"/><text fill="#000000" font-family="sans-serif" font-size="12" font-style="italic" lengthAdjust="spacing" textLength="7" x="383.5" y="728.457">T</text><line style="stroke:#181818;stroke-width:0.5;" x1="184.5" x2="387.5" y1="750" y2="750"/><line style="stroke:#181818;stroke-width:0.5;" x1="184.5" x2="387.5" y1="758" y2="758"/><ellipse cx="194.5" cy="772.3047" fill="#84BE84" rx="3" ry="3" style="stroke:#038048;stroke-width:1.0;"/><text fill="#000000" font-family="sans-serif" font-size="14" font-style="italic" lengthAdjust="spacing" textLength="105" x="203.5" y="776.5332">jsonKey(): String</text><ellipse cx="194.5" cy="789.9141" fill="#84BE84" rx="3" ry="3" style="stroke:#038048;stroke-width:1.0;"/><text fill="#000000" font-family="sans-serif" font-size="14" font-style="italic" lengthAdjust="spacing" textLength="109" x="203.5" y="794.1426">ALL(): Vector&lt;T&gt;</text><ellipse cx="194.5" cy="807.5234" fill="#84BE84" rx="3" ry="3" style="stroke:#038048;stroke-width:1.0;"/><text fill="#000000" font-family="sans-serif" font-size="14" font-style="italic" lengthAdjust="spacing" textLength="179" x="203.5" y="811.752">ALL_MAP(): Map&lt;String, T&gt;</text></g><!--reverse link Course to SealedConceptObject--><g id="link_Course_SealedConceptObject"><path codeLine="66" d="M286,610.22 C286,610.22 286,717.93 286,717.93 " fill="none" id="Course-backto-SealedConceptObject" style="stroke:#181818;stroke-width:1.0;"/><polygon fill="#181818" points="286,597.22,282,603.22,286,609.22,290,603.22,286,597.22" style="stroke:#181818;stroke-width:1.0;"/></g><!--reverse link StudyPlan to Course--><g id="link_StudyPlan_Course"><path codeLine="67" d="M286,184.34 C286,184.34 286,230.97 286,230.97 " fill="none" id="StudyPlan-backto-Course" style="stroke:#181818;stroke-width:1.0;"/><polygon fill="none" points="286,171.34,282,177.34,286,183.34,290,177.34,286,171.34" style="stroke:#181818;stroke-width:1.0;"/></g><!--link Course to RequestHandler--><g id="link_Course_RequestHandler"><path codeLine="68" d="M550.04,414 C550.04,414 580.49,414 580.49,414 " fill="none" id="Course-to-RequestHandler" style="stroke:#181818;stroke-width:1.0;"/><polygon fill="#181818" points="585.49,414,576.49,410,580.49,414,576.49,418,585.49,414" style="stroke:#181818;stroke-width:1.0;"/></g><!--link RequestHandler to Response--><g id="link_RequestHandler_Response"><path codeLine="69" d="M852.64,414 C852.64,414 874.98,414 874.98,414 " fill="none" id="RequestHandler-to-Response" style="stroke:#181818;stroke-width:1.0;"/><polygon fill="#181818" points="887.98,414,881.98,410,875.98,414,881.98,418,887.98,414" style="stroke:#181818;stroke-width:1.0;"/></g><!--SRC=[TLLDRzim3BtxL_3eh75wDu80NO6js_eHDEs0OOT1KPX4hIAfajmjAFBVHyg9xNnTt9Ya7yd7HpQyAkE45olGoc1SEmJhuz9ccHFoLImGvF8Zom2KYUZdGY8451fdqXg9BWucwUswVdkOlg2CmwSHVD0d01Vm8QOXUY7Z1bw2DJzmdVTAc4IlpE8uvEhsbjq_2SHwWZaPyUVkQinHTy8DQw0-K4QAtMIPr284UCIt2aEy4MQcqJF8S0XI1Eec-KTSO74GbdjysvNM1qUzb_3Dn5vM54L6HOGeef8Rc1BEizTD5nrNYDLih8KXTzSiRUNJDmH5QNsTDgzQa5u7JJYd4qkF61oz6_mNStwCcvBAWzAp_GeN6FFZcAE2SZKhJw7r3bjQSq_dehDDGtfmrX37S8RmYoQ4g0ubGTTKlmlY8V6zfPiYMIoa9cxZU_sJD47sfGZtp0VPFrkhKPYQqxPtYYwfmTLWOUr2uu0DWw_qQ0gzJjsVBVAw8QSHmng5Jypt8QgeiTmvWdkYbQ70CV_bzryfTEjd_GPS4Ld8nkslFjZKZdh7DiKCW_JAHSNbxun4-w9AK-y0qX9MEgxRA2G2x-oi0xRa5kwdvRQN6tvI2Ykh5HecgfE48KL5A-z3itcrQzHlfx-_RdcYWgSrul5vPQkm1qZySwR6cAQQNrw2ZKjQoBb2FGDZ8vqLYZMaX8eJboozkVKh4KjuI6JiQY67yyZIKq55bi-Hlmeuh_GNWZdq9KdnLfmSQW_sH5P0K2kdALUm-Xtt3jpmgG_FC2hfuEGljljPFmlIyenFdKDIwtDQ_8JO6KhUQyrNzH2wfacpVBriC1WmEO9vMfzfP3Tm8AQbq3hKfm1eK-6lzQy1hEcsIWTpknDDfjCxCUbUWHE9QuOFb4cMm39lnKQM-lGqKljT5qoLK2qdo8EYg5pnQTjNjcsFRROjgZ6F3c_JmJy20jgTeEm_]--></g></svg>